<svg width="24" height="24" viewBox="0 0 24 24" fill="none" xmlns="http://www.w3.org/2000/svg">
<path d="M0 12V24H24V0H0V12ZM14.563 19.626C14.671 19.565 15.074 19.332 15.455 19.111L16.145 18.711L16.29 18.925C16.492 19.233 16.933 19.656 17.2 19.797C17.966 20.201 19.017 20.144 19.535 19.679C19.728 19.516 19.849 19.274 19.849 19.004C19.849 18.988 19.849 18.973 19.848 18.957V18.959C19.848 18.681 19.813 18.559 19.668 18.349C19.482 18.083 19.101 17.859 18.019 17.389C16.781 16.856 16.248 16.525 15.76 15.999C15.466 15.665 15.239 15.263 15.107 14.821L15.101 14.799C15.01 14.46 14.987 13.61 15.059 13.268C15.314 12.071 16.217 11.238 17.52 10.99C17.943 10.91 18.926 10.94 19.341 11.043V11.044C19.951 11.196 20.415 11.467 20.842 11.909C21.063 12.145 21.391 12.575 21.417 12.679C21.425 12.709 20.381 13.409 19.749 13.802C19.726 13.817 19.634 13.718 19.532 13.566C19.222 13.116 18.899 12.922 18.404 12.888C17.676 12.838 17.208 13.219 17.212 13.855C17.212 13.866 17.211 13.879 17.211 13.892C17.211 14.043 17.249 14.185 17.316 14.309L17.314 14.304C17.474 14.635 17.772 14.834 18.704 15.237C20.423 15.977 21.158 16.464 21.615 17.157C22.125 17.93 22.24 19.165 21.893 20.083C21.513 21.081 20.568 21.759 19.238 21.983C18.827 22.056 17.852 22.045 17.41 21.965C16.446 21.793 15.532 21.317 14.968 20.692C14.747 20.449 14.316 19.812 14.343 19.767C14.354 19.751 14.453 19.69 14.563 19.626ZM5.258 12.065C5.258 11.531 5.269 11.085 5.284 11.075C5.296 11.059 7.197 11.051 9.501 11.055L13.696 11.067L13.707 12.046L13.715 13.029H10.59V21.905H8.38V13.029H5.258V12.065Z" fill="#1677C7"/>
</svg>
