<svg xmlns="http://www.w3.org/2000/svg" width="211" height="163" viewBox="0 0 211 163" fill="none">
  <mask
    id="path-1-outside-1_642_4128"
    maskUnits="userSpaceOnUse"
    x="0"
    y="0"
    width="334"
    height="340"
    fill="black"
  >
    <rect fill="white" width="334" height="340" />
    <path
      fill-rule="evenodd"
      clip-rule="evenodd"
      d="M222.174 67.0744H169.727L201.223 35.5783L166.657 1L132.079 35.5783L163.575 67.0744H111.128C104.378 67.0744 97.8956 69.7617 93.1196 74.5377L1 166.657L35.5783 201.236L148.649 88.1653C158.595 78.2184 174.719 78.2184 184.666 88.1653L297.736 201.236L332.315 166.657L240.182 74.525C235.406 69.749 228.924 67.0617 222.174 67.0617V67.0744ZM166.656 269.854L132.083 304.427L166.656 339L201.229 304.427L166.656 269.854ZM111.141 201.239H166.657H166.683H222.199C228.949 201.239 235.432 203.927 240.208 208.703L266.788 235.283L232.21 269.861L184.679 222.33C174.732 212.383 158.608 212.383 148.661 222.33L101.131 269.861L66.5522 235.283L93.1323 208.703C97.9083 203.927 104.391 201.239 111.141 201.239Z"
    />
  </mask>
  <path
    fill-rule="evenodd"
    clip-rule="evenodd"
    d="M222.174 67.0744H169.727L201.223 35.5783L166.657 1L132.079 35.5783L163.575 67.0744H111.128C104.378 67.0744 97.8956 69.7617 93.1196 74.5377L1 166.657L35.5783 201.236L148.649 88.1653C158.595 78.2184 174.719 78.2184 184.666 88.1653L297.736 201.236L332.315 166.657L240.182 74.525C235.406 69.749 228.924 67.0617 222.174 67.0617V67.0744ZM166.656 269.854L132.083 304.427L166.656 339L201.229 304.427L166.656 269.854ZM111.141 201.239H166.657H166.683H222.199C228.949 201.239 235.432 203.927 240.208 208.703L266.788 235.283L232.21 269.861L184.679 222.33C174.732 212.383 158.608 212.383 148.661 222.33L101.131 269.861L66.5522 235.283L93.1323 208.703C97.9083 203.927 104.391 201.239 111.141 201.239Z"
    fill="url(#paint0_linear_642_4128)"
  />
  <path
    d="M169.727 67.0744L169.373 66.7209L168.52 67.5744H169.727V67.0744ZM222.174 67.0744V67.5744H222.674V67.0744H222.174ZM201.223 35.5783L201.576 35.9318L201.93 35.5783L201.576 35.2248L201.223 35.5783ZM166.657 1L167.011 0.646512L166.657 0.292828L166.304 0.646447L166.657 1ZM132.079 35.5783L131.725 35.2247L131.372 35.5783L131.725 35.9318L132.079 35.5783ZM163.575 67.0744V67.5744H164.782L163.929 66.7209L163.575 67.0744ZM1 166.657L0.646447 166.304L0.292893 166.657L0.646447 167.011L1 166.657ZM35.5783 201.236L35.2247 201.589L35.5783 201.943L35.9318 201.589L35.5783 201.236ZM148.649 88.1653L149.002 88.5188L148.649 88.1653ZM184.666 88.1653L184.312 88.5188L184.666 88.1653ZM297.736 201.236L297.383 201.589L297.736 201.943L298.09 201.589L297.736 201.236ZM332.315 166.657L332.668 167.011L333.022 166.657L332.668 166.304L332.315 166.657ZM240.182 74.525L239.829 74.8785L240.182 74.525ZM222.174 67.0617V66.5617H221.674V67.0617H222.174ZM132.083 304.427L131.73 304.073L131.376 304.427L131.73 304.78L132.083 304.427ZM166.656 269.854L167.01 269.5L166.656 269.147L166.303 269.5L166.656 269.854ZM166.656 339L166.303 339.353L166.656 339.707L167.01 339.353L166.656 339ZM201.229 304.427L201.583 304.78L201.936 304.427L201.583 304.073L201.229 304.427ZM240.208 208.703L240.561 208.349V208.349L240.208 208.703ZM266.788 235.283L267.141 235.636L267.495 235.283L267.141 234.929L266.788 235.283ZM232.21 269.861L231.856 270.214L232.21 270.568L232.563 270.214L232.21 269.861ZM148.661 222.33L149.015 222.684L148.661 222.33ZM101.131 269.861L100.777 270.214L101.131 270.568L101.484 270.214L101.131 269.861ZM66.5522 235.283L66.1987 234.929L65.8451 235.283L66.1987 235.636L66.5522 235.283ZM169.727 67.5744H222.174V66.5744H169.727V67.5744ZM200.869 35.2247L169.373 66.7209L170.08 67.428L201.576 35.9318L200.869 35.2247ZM166.304 1.35349L200.869 35.9318L201.576 35.2248L167.011 0.646512L166.304 1.35349ZM132.433 35.9318L167.011 1.35355L166.304 0.646447L131.725 35.2247L132.433 35.9318ZM163.929 66.7209L132.433 35.2247L131.725 35.9318L163.222 67.428L163.929 66.7209ZM111.128 67.5744H163.575V66.5744H111.128V67.5744ZM93.4731 74.8913C98.1555 70.2089 104.511 67.5744 111.128 67.5744V66.5744C104.245 66.5744 97.6357 69.3145 92.766 74.1842L93.4731 74.8913ZM1.35355 167.011L93.4731 74.8913L92.766 74.1842L0.646447 166.304L1.35355 167.011ZM35.9318 200.882L1.35355 166.304L0.646447 167.011L35.2247 201.589L35.9318 200.882ZM148.295 87.8117L35.2247 200.882L35.9318 201.589L149.002 88.5188L148.295 87.8117ZM185.02 87.8117C174.877 77.6696 158.437 77.6696 148.295 87.8117L149.002 88.5188C158.754 78.7672 174.561 78.7672 184.312 88.5188L185.02 87.8117ZM298.09 200.882L185.02 87.8117L184.312 88.5188L297.383 201.589L298.09 200.882ZM331.961 166.304L297.383 200.882L298.09 201.589L332.668 167.011L331.961 166.304ZM239.829 74.8785L331.961 167.011L332.668 166.304L240.536 74.1714L239.829 74.8785ZM222.174 67.5617C228.791 67.5617 235.146 70.1962 239.829 74.8785L240.536 74.1714C235.666 69.3018 229.056 66.5617 222.174 66.5617V67.5617ZM222.674 67.0744V67.0617H221.674V67.0744H222.674ZM132.437 304.78L167.01 270.207L166.303 269.5L131.73 304.073L132.437 304.78ZM167.01 338.646L132.437 304.073L131.73 304.78L166.303 339.353L167.01 338.646ZM200.876 304.073L166.303 338.646L167.01 339.353L201.583 304.78L200.876 304.073ZM166.303 270.207L200.876 304.78L201.583 304.073L167.01 269.5L166.303 270.207ZM166.657 200.739H111.141V201.739H166.657V200.739ZM166.683 200.739H166.657V201.739H166.683V200.739ZM222.199 200.739H166.683V201.739H222.199V200.739ZM240.561 208.349C235.692 203.479 229.082 200.739 222.199 200.739V201.739C228.816 201.739 235.172 204.374 239.854 209.056L240.561 208.349ZM267.141 234.929L240.561 208.349L239.854 209.056L266.434 235.636L267.141 234.929ZM232.563 270.214L267.141 235.636L266.434 234.929L231.856 269.507L232.563 270.214ZM184.325 222.684L231.856 270.214L232.563 269.507L185.032 221.977L184.325 222.684ZM149.015 222.684C158.766 212.932 174.574 212.932 184.325 222.684L185.032 221.977C174.89 211.834 158.45 211.834 148.308 221.977L149.015 222.684ZM101.484 270.214L149.015 222.684L148.308 221.977L100.777 269.507L101.484 270.214ZM66.1987 235.636L100.777 270.214L101.484 269.507L66.9058 234.929L66.1987 235.636ZM92.7787 208.349L66.1987 234.929L66.9058 235.636L93.4858 209.056L92.7787 208.349ZM111.141 200.739C104.258 200.739 97.6484 203.479 92.7787 208.349L93.4858 209.056C98.1682 204.374 104.524 201.739 111.141 201.739V200.739Z"
    fill="url(#paint1_linear_642_4128)"
    mask="url(#path-1-outside-1_642_4128)"
  />
  <defs>
    <linearGradient
      id="paint0_linear_642_4128"
      x1="82.5"
      y1="43"
      x2="183.837"
      y2="159.975"
      gradientUnits="userSpaceOnUse"
    >
      <stop stop-color="white" stop-opacity="0.1" />
      <stop offset="1" stop-color="white" stop-opacity="0.4" />
    </linearGradient>
    <linearGradient
      id="paint1_linear_642_4128"
      x1="100.5"
      y1="53.5"
      x2="210.094"
      y2="158.311"
      gradientUnits="userSpaceOnUse"
    >
      <stop stop-color="white" stop-opacity="0.6" />
      <stop offset="1" stop-color="white" stop-opacity="0.4" />
    </linearGradient>
  </defs>
</svg>
