<svg width="50" height="54" viewBox="0 0 50 54" fill="none" xmlns="http://www.w3.org/2000/svg">
<path fill-rule="evenodd" clip-rule="evenodd" d="M2.02821 17.7248C0.79364 17.0194 0 15.6966 0 14.1975C0 11.9929 1.85188 10.1411 4.05647 10.1411C4.67375 10.1411 5.20284 10.2293 5.64376 10.4938L22.6631 0.70551C23.4568 0.264593 24.4268 0 25.3086 0C26.2787 0 27.1605 0.264593 27.9541 0.70551L42.4162 9.08293C41.358 9.7884 40.5644 10.8465 40.0353 12.0811L26.0141 3.96825C25.7496 3.79189 25.485 3.79193 25.2205 3.79193C24.9559 3.79193 24.6914 3.88007 24.4268 3.96825L7.84834 13.4921C7.84834 13.7567 7.93651 13.933 7.93651 14.1975C7.93651 15.9612 6.79012 17.3722 5.291 17.9894C5.20282 17.9894 5.02649 18.0776 4.9383 18.0776H4.85009C4.7619 18.0776 4.58557 18.1658 4.49739 18.1658H4.40917C4.2328 18.1658 4.14462 18.1658 3.96825 18.1658C3.79189 18.1658 3.61554 18.1658 3.43917 18.1658H3.35096C3.26278 18.1658 3.08644 18.1658 2.99826 18.0776H2.91004C2.64549 17.9894 2.29276 17.9012 2.02821 17.7248ZM50 14.1975C50 15.4321 49.4709 16.4903 48.5891 17.1958V36.3315C48.5891 38.2716 47.5309 40.0353 45.9436 41.0053L31.4815 49.2945C31.4815 47.9718 31.0405 46.6491 30.2469 45.679L44.0035 37.7425C44.5326 37.478 44.7972 36.9488 44.7972 36.3315V18.0776C43.1217 17.5485 41.8871 16.0494 41.8871 14.1975C41.8871 13.3157 42.1517 12.5221 42.6808 11.8166C42.769 11.7284 42.8571 11.552 42.9453 11.4638C43.2099 11.1993 43.3862 11.023 43.6508 10.8466C43.6508 10.8466 43.739 10.8465 43.739 10.7583C43.8272 10.6701 43.9153 10.6702 44.0917 10.582C44.0917 10.582 44.1799 10.582 44.1799 10.4938C44.3563 10.4057 44.4445 10.4056 44.6208 10.3174C44.9736 10.2292 45.4145 10.1411 45.8554 10.1411C48.1481 10.1411 50 11.9929 50 14.1975ZM29.3651 49.4709C29.3651 49.6472 29.3651 49.9118 29.2769 50.0882V50.1764C28.9242 52.0282 27.3369 53.5273 25.3086 53.5273C23.545 53.5273 22.0459 52.3809 21.5168 50.7936L4.76193 41.0934C3.08644 40.1234 2.11642 38.3598 2.11642 36.4198V20.1059C2.73371 20.2822 3.43919 20.4585 4.05647 20.4585C4.67375 20.4585 5.29104 20.3704 5.82014 20.194V36.4198C5.82014 37.0371 6.17284 37.5661 6.61376 37.8307L22.3104 46.9135C23.0159 46.0317 24.1622 45.5026 25.3968 45.5026C26.7196 45.5026 27.866 46.1199 28.6596 47.1781C28.6596 47.1781 28.6596 47.1781 28.6596 47.2663C28.7478 47.3545 28.7478 47.4427 28.836 47.5309C28.836 47.5309 28.836 47.619 28.9241 47.619C28.9241 47.7072 29.0124 47.7954 29.0124 47.7954C29.0124 47.7954 29.0123 47.8836 29.1005 47.8836C29.1005 47.9718 29.1887 48.06 29.1887 48.06C29.1887 48.1481 29.1887 48.1481 29.2769 48.2363C29.2769 48.3245 29.3651 48.3245 29.3651 48.4127C29.3651 48.5009 29.3651 48.5009 29.4533 48.589C29.4533 48.6772 29.4533 48.6773 29.4533 48.7655C29.4533 48.8536 29.4533 48.9418 29.4533 49.0299C29.4533 49.1181 29.4533 49.1182 29.4533 49.2064C29.3651 49.2064 29.3651 49.2945 29.3651 49.4709Z" fill="#1CC8EE"/>
<path d="M26.344 37.576C24.712 37.576 23.192 37.288 21.784 36.712C20.408 36.136 19.192 35.336 18.136 34.312C17.112 33.288 16.312 32.072 15.736 30.664C15.16 29.256 14.872 27.704 14.872 26.008C14.872 24.376 15.16 22.84 15.736 21.4C16.312 19.96 17.112 18.712 18.136 17.656C19.192 16.568 20.408 15.72 21.784 15.112C23.192 14.472 24.728 14.152 26.392 14.152C28.44 14.152 30.232 14.536 31.768 15.304C33.304 16.072 34.52 17.128 35.416 18.472L32.392 21.784L32.104 22.12L31.72 21.832C31.72 21.576 31.688 21.32 31.624 21.064C31.56 20.776 31.352 20.44 31 20.056C30.392 19.448 29.72 19.048 28.984 18.856C28.248 18.632 27.4 18.52 26.44 18.52C25.64 18.52 24.872 18.696 24.136 19.048C23.432 19.368 22.792 19.848 22.216 20.488C21.64 21.096 21.192 21.864 20.872 22.792C20.552 23.72 20.392 24.792 20.392 26.008C20.392 27.096 20.552 28.088 20.872 28.984C21.224 29.848 21.672 30.6 22.216 31.24C22.792 31.848 23.448 32.328 24.184 32.68C24.952 33 25.752 33.16 26.584 33.16C27.256 33.16 27.912 33.064 28.552 32.872C29.192 32.68 29.816 32.392 30.424 32.008C31.064 31.592 31.656 31.048 32.2 30.376L35.224 33.832C34.04 35.144 32.664 36.104 31.096 36.712C29.528 37.288 27.944 37.576 26.344 37.576Z" fill="#1CC8EE"/>
</svg>
