<svg xmlns="http://www.w3.org/2000/svg" viewBox="0 0 160 172" fill="none">
  <mask
    id="path-1-outside-1_642_4223"
    maskUnits="userSpaceOnUse"
    x="0"
    y="-52"
    width="265"
    height="265"
    fill="black"
  >
    <rect fill="white" y="-52" width="265" height="265" />
    <path
      fill-rule="evenodd"
      clip-rule="evenodd"
      d="M79.8868 -51H185.113L264 27.8868V133.113L185.113 212H79.8868L1 133.113V27.8868L79.8868 -51ZM146.836 195.215L247.204 94.8463C255.126 86.9252 255.126 74.085 247.204 66.1639L146.836 -34.2043C138.915 -42.1255 126.075 -42.1255 118.154 -34.2043L17.7957 66.1639C9.87451 74.085 9.87451 86.9252 17.7957 94.8463L118.154 195.215C126.075 203.136 138.915 203.136 146.836 195.215ZM104.963 80.4952L132.495 52.9631L160.027 80.4952L132.495 108.027L104.963 80.4952Z"
    />
  </mask>
  <path
    fill-rule="evenodd"
    clip-rule="evenodd"
    d="M79.8868 -51H185.113L264 27.8868V133.113L185.113 212H79.8868L1 133.113V27.8868L79.8868 -51ZM146.836 195.215L247.204 94.8463C255.126 86.9252 255.126 74.085 247.204 66.1639L146.836 -34.2043C138.915 -42.1255 126.075 -42.1255 118.154 -34.2043L17.7957 66.1639C9.87451 74.085 9.87451 86.9252 17.7957 94.8463L118.154 195.215C126.075 203.136 138.915 203.136 146.836 195.215ZM104.963 80.4952L132.495 52.9631L160.027 80.4952L132.495 108.027L104.963 80.4952Z"
    fill="url(#paint0_linear_642_4223)"
  />
  <path
    d="M185.113 -51L185.467 -51.3536L185.32 -51.5H185.113V-51ZM79.8868 -51V-51.5H79.6797L79.5333 -51.3536L79.8868 -51ZM264 27.8868H264.5V27.6797L264.354 27.5333L264 27.8868ZM264 133.113L264.354 133.467L264.5 133.32V133.113H264ZM185.113 212V212.5H185.32L185.467 212.354L185.113 212ZM79.8868 212L79.5333 212.354L79.6797 212.5H79.8868V212ZM1 133.113H0.5V133.32L0.646447 133.467L1 133.113ZM1 27.8868L0.646447 27.5333L0.5 27.6797V27.8868H1ZM146.836 195.215L147.19 195.568L146.836 195.215ZM247.204 66.1639L246.851 66.5174L247.204 66.1639ZM146.836 -34.2043L147.19 -34.5579L146.836 -34.2043ZM118.154 -34.2043L117.8 -34.5579L117.8 -34.5579L118.154 -34.2043ZM17.7957 66.1639L18.1492 66.5174L18.1492 66.5174L17.7957 66.1639ZM17.7957 94.8463L18.1492 94.4928L18.1492 94.4928L17.7957 94.8463ZM118.154 195.215L117.8 195.568L117.8 195.568L118.154 195.215ZM132.495 52.9631L132.849 52.6096L132.495 52.256L132.142 52.6096L132.495 52.9631ZM104.963 80.4952L104.609 80.1417L104.256 80.4952L104.609 80.8488L104.963 80.4952ZM160.027 80.4952L160.381 80.8488L160.734 80.4952L160.381 80.1417L160.027 80.4952ZM132.495 108.027L132.142 108.381L132.495 108.734L132.849 108.381L132.495 108.027ZM185.113 -51.5H79.8868V-50.5H185.113V-51.5ZM264.354 27.5333L185.467 -51.3536L184.76 -50.6464L263.646 28.2404L264.354 27.5333ZM264.5 133.113V27.8868H263.5V133.113H264.5ZM185.467 212.354L264.354 133.467L263.646 132.76L184.76 211.646L185.467 212.354ZM79.8868 212.5H185.113V211.5H79.8868V212.5ZM0.646447 133.467L79.5333 212.354L80.2404 211.646L1.35355 132.76L0.646447 133.467ZM0.5 27.8868V133.113H1.5V27.8868H0.5ZM79.5333 -51.3536L0.646447 27.5333L1.35355 28.2404L80.2404 -50.6464L79.5333 -51.3536ZM246.851 94.4928L146.483 194.861L147.19 195.568L247.558 95.1998L246.851 94.4928ZM246.851 66.5174C254.577 74.2433 254.577 86.7669 246.851 94.4928L247.558 95.1998C255.674 87.0835 255.674 73.9267 247.558 65.8103L246.851 66.5174ZM146.483 -33.8508L246.851 66.5174L247.558 65.8103L147.19 -34.5579L146.483 -33.8508ZM118.507 -33.8508C126.233 -41.5767 138.757 -41.5767 146.483 -33.8508L147.19 -34.5579C139.073 -42.6743 125.917 -42.6743 117.8 -34.5579L118.507 -33.8508ZM18.1492 66.5174L118.507 -33.8508L117.8 -34.5579L17.4421 65.8103L18.1492 66.5174ZM18.1492 94.4928C10.4233 86.7669 10.4233 74.2433 18.1492 66.5174L17.4421 65.8103C9.3257 73.9267 9.3257 87.0835 17.4421 95.1998L18.1492 94.4928ZM118.507 194.861L18.1492 94.4928L17.4421 95.1998L117.8 195.568L118.507 194.861ZM146.483 194.861C138.757 202.587 126.233 202.587 118.507 194.861L117.8 195.568C125.917 203.684 139.073 203.684 147.19 195.568L146.483 194.861ZM132.142 52.6096L104.609 80.1417L105.317 80.8488L132.849 53.3167L132.142 52.6096ZM160.381 80.1417L132.849 52.6096L132.142 53.3167L159.674 80.8488L160.381 80.1417ZM132.849 108.381L160.381 80.8488L159.674 80.1417L132.142 107.674L132.849 108.381ZM104.609 80.8488L132.142 108.381L132.849 107.674L105.317 80.1417L104.609 80.8488Z"
    fill="url(#paint1_linear_642_4223)"
    mask="url(#path-1-outside-1_642_4223)"
  />
  <defs>
    <linearGradient
      id="paint0_linear_642_4223"
      x1="0.999999"
      y1="2"
      x2="161"
      y2="171"
      gradientUnits="userSpaceOnUse"
    >
      <stop stop-color="#3B736A" />
      <stop offset="1" stop-color="#245850" />
    </linearGradient>
    <linearGradient
      id="paint1_linear_642_4223"
      x1="1"
      y1="5"
      x2="161"
      y2="173.5"
      gradientUnits="userSpaceOnUse"
    >
      <stop stop-color="white" stop-opacity="0.4" />
      <stop offset="1" stop-color="white" stop-opacity="0.1" />
    </linearGradient>
  </defs>
</svg>
