<svg xmlns="http://www.w3.org/2000/svg" viewBox="0 0 156 172">
  <path
    d="M213.474 -37.2159L246.99 -3.69922H247V101.699L213.483 135.216L210.216 138.483L176.699 172H71.3008L37.7841 138.483L34.5167 135.216L1 101.699V-3.69922L34.5071 -37.2159L37.7745 -40.4833L71.2912 -74H176.69L210.206 -40.4833L213.474 -37.2159ZM56.9474 135.206H191.043C201.631 135.206 210.206 126.631 210.206 116.043V-18.0526C210.206 -28.6403 201.631 -37.2159 191.043 -37.2159H56.9474C46.3597 -37.2159 37.7841 -28.6403 37.7841 -18.0526V116.043C37.7841 126.631 46.3597 135.206 56.9474 135.206ZM70.9266 83.0905V14.8977C70.9266 4.30997 79.5022 -4.26562 90.09 -4.26562H157.9C168.487 -4.26562 177.063 4.30997 177.063 14.8977V83.0905C177.063 93.6783 168.487 102.254 157.9 102.254H90.09C79.5022 102.254 70.9266 93.6783 70.9266 83.0905ZM140.279 65.4698V32.5184H107.711V65.4698H140.279Z"
  />
</svg>
