<svg xmlns="http://www.w3.org/2000/svg" viewBox="0 -11 211 163">
  <path
    d="M222.174 67.0744H169.727L201.223 35.5783L166.657 1L132.079 35.5783L163.575 67.0744H111.128C104.378 67.0744 97.8956 69.7617 93.1196 74.5377L1 166.657L35.5783 201.236L148.649 88.1653C158.595 78.2184 174.719 78.2184 184.666 88.1653L297.736 201.236L332.315 166.657L240.182 74.525C235.406 69.749 228.924 67.0617 222.174 67.0617V67.0744ZM166.656 269.854L132.083 304.427L166.656 339L201.229 304.427L166.656 269.854ZM111.141 201.239H166.657H166.683H222.199C228.949 201.239 235.432 203.927 240.208 208.703L266.788 235.283L232.21 269.861L184.679 222.33C174.732 212.383 158.608 212.383 148.661 222.33L101.131 269.861L66.5522 235.283L93.1323 208.703C97.9083 203.927 104.391 201.239 111.141 201.239Z"
  />
</svg>
