<svg xmlns="http://www.w3.org/2000/svg" viewBox="0 0 755.22 56.61">
  <path
    d="M526.55,32.89a.45.45,0,0,1-.35-.14.47.47,0,0,1-.15-.35V18.74a.51.51,0,0,1,.5-.5h1.84a.46.46,0,0,1,.36.15.48.48,0,0,1,.13.35v4.7a4.27,4.27,0,0,1,1.37-1.07,4.21,4.21,0,0,1,2-.41,4.26,4.26,0,0,1,2.2.56,3.88,3.88,0,0,1,1.45,1.6,5.44,5.44,0,0,1,.52,2.48v5.8a.5.5,0,0,1-.14.35.48.48,0,0,1-.36.14h-1.85a.45.45,0,0,1-.35-.14.47.47,0,0,1-.15-.35V26.72a2.78,2.78,0,0,0-.59-1.87,2.11,2.11,0,0,0-1.7-.69,2.27,2.27,0,0,0-1.73.69,2.61,2.61,0,0,0-.65,1.87V32.4a.49.49,0,0,1-.13.35.45.45,0,0,1-.36.14Z"
    style="fill: #fff"
  />
  <path
    d="M543.77,33.1a5.94,5.94,0,0,1-2.77-.58,3.94,3.94,0,0,1-1.72-1.63,5.6,5.6,0,0,1-.67-2.45c0-.25,0-.55,0-.91s0-.66,0-.91a5.49,5.49,0,0,1,.69-2.47A4.26,4.26,0,0,1,541,22.53a6.85,6.85,0,0,1,5.47,0,4.17,4.17,0,0,1,1.73,1.62,5.49,5.49,0,0,1,.7,2.47c0,.25,0,.55,0,.91s0,.66,0,.91a5.6,5.6,0,0,1-.68,2.45,4,4,0,0,1-1.71,1.63A6,6,0,0,1,543.77,33.1Zm0-2a2.14,2.14,0,0,0,1.7-.69,3.28,3.28,0,0,0,.66-2c0-.2,0-.47,0-.8s0-.6,0-.81a3.26,3.26,0,0,0-.66-2,2.4,2.4,0,0,0-3.39,0,3.26,3.26,0,0,0-.66,2c0,.21,0,.48,0,.81s0,.6,0,.8a3.28,3.28,0,0,0,.66,2A2.12,2.12,0,0,0,543.77,31.06Z"
    style="fill: #fff"
  />
  <path
    d="M555.32,33.1a6.92,6.92,0,0,1-2.12-.29,4.66,4.66,0,0,1-1.43-.72,3.33,3.33,0,0,1-.83-.87,1.65,1.65,0,0,1-.29-.72.42.42,0,0,1,.13-.36.53.53,0,0,1,.35-.13h1.63a.32.32,0,0,1,.14,0,.44.44,0,0,1,.17.12l.56.47a2.8,2.8,0,0,0,.72.43,2.77,2.77,0,0,0,1,.17,2.55,2.55,0,0,0,1.35-.32,1,1,0,0,0,.55-.92,1,1,0,0,0-.24-.7,2,2,0,0,0-.88-.48,16.07,16.07,0,0,0-1.81-.47,7.63,7.63,0,0,1-1.92-.68,2.87,2.87,0,0,1-1.14-1,2.71,2.71,0,0,1-.37-1.44,2.77,2.77,0,0,1,.48-1.54,3.66,3.66,0,0,1,1.45-1.21,5.32,5.32,0,0,1,2.38-.47,6,6,0,0,1,1.95.28,4.5,4.5,0,0,1,1.37.69,3.68,3.68,0,0,1,.84.83,1.65,1.65,0,0,1,.31.74.42.42,0,0,1-.13.36.44.44,0,0,1-.33.13h-1.53a.34.34,0,0,1-.18,0l-.17-.1c-.15-.14-.31-.29-.49-.44a3.13,3.13,0,0,0-.65-.4,2.4,2.4,0,0,0-1-.18,1.85,1.85,0,0,0-1.19.34,1.07,1.07,0,0,0-.42.86,1,1,0,0,0,.2.61,2,2,0,0,0,.79.49,13.82,13.82,0,0,0,1.82.47,6.73,6.73,0,0,1,2.2.73,3.06,3.06,0,0,1,1.16,1.12,2.83,2.83,0,0,1,.34,1.39,2.7,2.7,0,0,1-.55,1.67A3.57,3.57,0,0,1,558,32.68,7.21,7.21,0,0,1,555.32,33.1Z"
    style="fill: #fff"
  />
  <path
    d="M567.05,32.89a4.55,4.55,0,0,1-2.09-.43,2.81,2.81,0,0,1-1.26-1.29,5,5,0,0,1-.41-2.14V24.35h-1.63a.5.5,0,0,1-.5-.49v-1.2a.51.51,0,0,1,.5-.5h1.63V18.74a.48.48,0,0,1,.13-.35.47.47,0,0,1,.37-.15h1.67a.47.47,0,0,1,.35.15.45.45,0,0,1,.15.35v3.42h2.58a.5.5,0,0,1,.49.5v1.2a.48.48,0,0,1-.49.49H566v4.48a2.49,2.49,0,0,0,.29,1.32,1.13,1.13,0,0,0,1,.47h1.42a.51.51,0,0,1,.5.5V32.4a.47.47,0,0,1-.15.35.45.45,0,0,1-.35.14Z"
    style="fill: #fff"
  />
  <path
    d="M575.68,33.1a4.94,4.94,0,0,1-3.63-1.32A5.35,5.35,0,0,1,570.6,28c0-.13,0-.31,0-.52s0-.38,0-.51a6.21,6.21,0,0,1,.71-2.68,4.4,4.4,0,0,1,1.75-1.75,5.45,5.45,0,0,1,2.62-.6,5.32,5.32,0,0,1,2.81.69,4.39,4.39,0,0,1,1.72,1.92,6.65,6.65,0,0,1,.57,2.83v.44a.5.5,0,0,1-.14.35.53.53,0,0,1-.37.14h-6.86v.17a3.63,3.63,0,0,0,.28,1.33,2.33,2.33,0,0,0,.76,1,2,2,0,0,0,1.21.37,2.48,2.48,0,0,0,1-.17,2.61,2.61,0,0,0,1-.78,1.35,1.35,0,0,1,.3-.3,1,1,0,0,1,.34-.05H580a.45.45,0,0,1,.34.13.31.31,0,0,1,.11.3,1.65,1.65,0,0,1-.34.81,3.84,3.84,0,0,1-.92.93,5.06,5.06,0,0,1-1.49.75A6.52,6.52,0,0,1,575.68,33.1Zm-2.27-6.5H578v-.06a3.58,3.58,0,0,0-.26-1.41,2.2,2.2,0,0,0-.79-.94,2.11,2.11,0,0,0-1.24-.36,2.13,2.13,0,0,0-1.24.36,2.16,2.16,0,0,0-.77.94,3.41,3.41,0,0,0-.26,1.41Z"
    style="fill: #fff"
  />
  <path
    d="M587,33.1a4.62,4.62,0,0,1-1.89-.36,3.46,3.46,0,0,1-1.35-1,4.66,4.66,0,0,1-.83-1.56,7.51,7.51,0,0,1-.33-2c0-.25,0-.47,0-.67s0-.42,0-.67a7.27,7.27,0,0,1,.32-1.92,4.67,4.67,0,0,1,.83-1.56,3.61,3.61,0,0,1,1.36-1A4.46,4.46,0,0,1,587,22a4.19,4.19,0,0,1,1.89.38,4.09,4.09,0,0,1,1.29,1V18.74a.48.48,0,0,1,.13-.35.46.46,0,0,1,.36-.15h1.76a.47.47,0,0,1,.35.15.45.45,0,0,1,.14.35V32.4a.48.48,0,0,1-.49.49h-1.63a.44.44,0,0,1-.36-.14.5.5,0,0,1-.14-.35v-.76a4.16,4.16,0,0,1-1.31,1A4.35,4.35,0,0,1,587,33.1Zm.76-2.21a2.27,2.27,0,0,0,1.39-.39,2.43,2.43,0,0,0,.76-1,3.64,3.64,0,0,0,.27-1.25c0-.25,0-.51,0-.79s0-.55,0-.8a2.85,2.85,0,0,0-.29-1.18,2.32,2.32,0,0,0-.79-.94,2.22,2.22,0,0,0-1.34-.38,2.19,2.19,0,0,0-1.37.39,2.06,2.06,0,0,0-.73,1,4.16,4.16,0,0,0-.27,1.36c0,.41,0,.83,0,1.24a4.22,4.22,0,0,0,.27,1.36,2.11,2.11,0,0,0,.73,1A2.19,2.19,0,0,0,587.72,30.89Z"
    style="fill: #fff"
  />
  <path
    d="M606.31,33.1a4.35,4.35,0,0,1-2-.41,4.16,4.16,0,0,1-1.31-1v.76a.5.5,0,0,1-.14.35.45.45,0,0,1-.36.14h-1.63a.45.45,0,0,1-.35-.14.47.47,0,0,1-.15-.35V18.74a.51.51,0,0,1,.5-.5h1.75a.47.47,0,0,1,.37.15.52.52,0,0,1,.13.35v4.58a3.87,3.87,0,0,1,1.29-1,4.19,4.19,0,0,1,1.89-.38,4.47,4.47,0,0,1,1.9.37,3.66,3.66,0,0,1,1.35,1,4.69,4.69,0,0,1,.84,1.56,6.89,6.89,0,0,1,.31,1.92c0,.25,0,.47,0,.67s0,.42,0,.67a7.51,7.51,0,0,1-.33,2,4.66,4.66,0,0,1-.83,1.56,3.58,3.58,0,0,1-1.34,1A4.63,4.63,0,0,1,606.31,33.1Zm-.77-2.21a2.19,2.19,0,0,0,1.39-.38,2.07,2.07,0,0,0,.71-1,4.83,4.83,0,0,0,.26-1.36,8.55,8.55,0,0,0,0-1.24,4.76,4.76,0,0,0-.26-1.36,2,2,0,0,0-.71-1,2.19,2.19,0,0,0-1.39-.39,2.26,2.26,0,0,0-1.34.38,2.38,2.38,0,0,0-.78.94,2.85,2.85,0,0,0-.29,1.18c0,.25,0,.51,0,.8s0,.54,0,.79a4.19,4.19,0,0,0,.28,1.25,2.27,2.27,0,0,0,.76,1A2.25,2.25,0,0,0,605.54,30.89Z"
    style="fill: #fff"
  />
  <path
    d="M614.53,36.82a.41.41,0,0,1-.29-.13.4.4,0,0,1-.12-.29.76.76,0,0,1,0-.15.41.41,0,0,1,.07-.18l1.61-3.82-4-9.34a1.17,1.17,0,0,1-.08-.29.53.53,0,0,1,.15-.32.4.4,0,0,1,.31-.14h1.67a.48.48,0,0,1,.37.13.91.91,0,0,1,.19.26l2.74,6.75L620,22.55a.88.88,0,0,1,.19-.27.51.51,0,0,1,.37-.12h1.65a.41.41,0,0,1,.3.13.38.38,0,0,1,.14.29.91.91,0,0,1-.09.33l-5.84,13.51a.86.86,0,0,1-.21.28.5.5,0,0,1-.37.12Z"
    style="fill: #fff"
  />
  <path d="M679.33,40.06h1.25V35.39h4.54V34.27h-4.54V30.75h5V29.63h-6.24Z" style="fill: #fff" />
  <path
    d="M690.32,32.14c-2.11,0-3.55,1.6-3.55,4s1.42,4,3.55,4,3.55-1.6,3.55-4S692.43,32.14,690.32,32.14Zm0,7c-1.6,0-2.35-1.38-2.35-3s.72-2.95,2.35-2.95,2.35,1.41,2.35,2.95S691.92,39.12,690.32,39.12Z"
    style="fill: #fff"
  />
  <path
    d="M700.78,36.86a2,2,0,0,1-2,2.13A1.7,1.7,0,0,1,697,37.12V32.25h-1.2v5c0,2,1.07,3,2.54,3a2.49,2.49,0,0,0,2.32-1.41h.08v1.33H702V32.25h-1.2Z"
    style="fill: #fff"
  />
  <path
    d="M708.14,32.14a2.28,2.28,0,0,0-2.27,1.33h-.1V32.25h-1.15v7.81h1.2V35.34a1.94,1.94,0,0,1,2-2.13,1.72,1.72,0,0,1,1.79,1.94V40h1.2v-5C710.78,33.1,709.71,32.14,708.14,32.14Z"
    style="fill: #fff"
  />
  <path
    d="M718.6,33.47h-.11a2.38,2.38,0,0,0-2.27-1.33c-2,0-3.33,1.57-3.33,4s1.36,4.06,3.31,4.06a2.38,2.38,0,0,0,2.26-1.36h.14v1.2h1.15V29.63h-1.21v3.84Zm-2.22,5.65c-1.49,0-2.26-1.33-2.26-3s.74-2.93,2.26-2.93,2.24,1.17,2.24,2.93S717.82,39.12,716.38,39.12Z"
    style="fill: #fff"
  />
  <path
    d="M725.4,32.14A3.13,3.13,0,0,0,722.28,34l1.15.4a2.1,2.1,0,0,1,2-1.17,1.45,1.45,0,0,1,1.66,1.6c0,.58-.59.56-2,.72s-3,.5-3,2.29A2.72,2.72,0,0,0,727,39h.05V40h1.2V34.91A2.55,2.55,0,0,0,725.4,32.14Zm1.71,5.09a2,2,0,0,1-2.19,1.92c-1,0-1.65-.43-1.65-1.25s.82-1.2,1.76-1.34a6.17,6.17,0,0,0,2.08-.45Z"
    style="fill: #fff"
  />
  <path
    d="M733.7,39c-.54,0-1-.16-1-1.17V33.26h1.68v-1h-1.68V30.38h-1.2v1.87h-1.18v1h1.18v4.88a2,2,0,0,0,2.1,2,3.09,3.09,0,0,0,.91-.13L734.23,39C734.12,38.94,734,39,733.7,39Z"
    style="fill: #fff"
  />
  <path d="M737.83,32.25h-1.2v7.81h1.2Z" style="fill: #fff" />
  <path
    d="M737.24,29.34a.83.83,0,0,0-.85.83.85.85,0,0,0,.85.82.83.83,0,0,0,.86-.82A.82.82,0,0,0,737.24,29.34Z"
    style="fill: #fff"
  />
  <path
    d="M743.51,32.14c-2.1,0-3.54,1.6-3.54,4s1.41,4,3.54,4,3.55-1.6,3.55-4S745.62,32.14,743.51,32.14Zm0,7c-1.6,0-2.34-1.38-2.34-3s.72-2.95,2.34-2.95,2.35,1.41,2.35,2.95S745.11,39.12,743.51,39.12Z"
    style="fill: #fff"
  />
  <path
    d="M752.56,32.14a2.27,2.27,0,0,0-2.27,1.33h-.11V32.25H749v7.81h1.2V35.34a1.94,1.94,0,0,1,2-2.13A1.71,1.71,0,0,1,754,35.15V40h1.2v-5C755.2,33.1,754.13,32.14,752.56,32.14Z"
    style="fill: #fff"
  />
  <path
    d="M687.81,19h-4.34v1.66h2.18a2.14,2.14,0,0,1-2.34,2.1c-1.63,0-2.67-1.2-2.67-3.41s1-3.39,2.61-3.39a2.19,2.19,0,0,1,2.24,1.58h2.24A4.28,4.28,0,0,0,683.25,14c-2.75,0-4.83,2-4.83,5.36s2,5.33,4.89,5.33a4.21,4.21,0,0,0,4.53-4.4Z"
    style="fill: #fff"
  />
  <path
    d="M692.06,18.09H692V16.73h-2.11v7.81H692V20.12a1.53,1.53,0,0,1,1.57-1.6,1.57,1.57,0,0,1,.75.19l.64-1.79a2.17,2.17,0,0,0-1.07-.29A1.85,1.85,0,0,0,692.06,18.09Z"
    style="fill: #fff"
  />
  <path
    d="M699.36,16.63c-1.92,0-3.14.9-3.44,2.32l2,.16a1.34,1.34,0,0,1,1.39-.91c.75,0,1.15.37,1.15,1s-.54.59-1.9.72c-1.54.14-2.93.67-2.93,2.4,0,1.55,1.09,2.32,2.59,2.32a2.46,2.46,0,0,0,2.29-1.23h.06v1.1h2V19.27C702.65,17.4,701.05,16.63,699.36,16.63Zm1.13,5.11a1.49,1.49,0,0,1-1.63,1.44c-.67,0-1.15-.32-1.15-.9s.51-.91,1.25-1a4.9,4.9,0,0,0,1.5-.34v.82Z"
    style="fill: #fff"
  />
  <path
    d="M709.21,16.63A2.3,2.3,0,0,0,707,18h-.1V16.73h-2.14V27.48h2.16V23.29H707a2.32,2.32,0,0,0,2.21,1.39c1.79,0,3.18-1.42,3.18-4S710.92,16.63,709.21,16.63Zm-.7,6.31c-1,0-1.62-.9-1.65-2.31s.59-2.3,1.65-2.3,1.66.94,1.66,2.3S709.58,22.94,708.51,22.94Z"
    style="fill: #fff"
  />
  <path
    d="M718.78,16.63a2.35,2.35,0,0,0-2.34,1.46h-.08v-4h-2.11V24.54h2.16V20a1.44,1.44,0,0,1,1.49-1.6,1.33,1.33,0,0,1,1.39,1.52v4.59h2.16v-5A2.6,2.6,0,0,0,718.78,16.63Z"
    style="fill: #fff"
  />
  <path
    d="M732.63,25.4l-1.49-1.87a5.48,5.48,0,0,0,1.65-4.18c0-3.42-2.11-5.36-4.88-5.36S723,15.93,723,19.35s2.1,5.35,4.88,5.35a4.93,4.93,0,0,0,1.81-.32l.83,1h2.08Zm-2.83-3.5-.77-1h-1.87l1.34,1.76a5.48,5.48,0,0,1-.57.05c-1.6,0-2.64-1.2-2.64-3.41s1-3.41,2.64-3.41,2.65,1.2,2.65,3.41A3.91,3.91,0,0,1,729.8,21.9Z"
    style="fill: #fff"
  />
  <path d="M741.54,22.73h-4.48V14.12h-2.19V24.54h6.67Z" style="fill: #fff" />
  <path
    d="M669.67,22.78a3.29,3.29,0,0,0,1.2-4.5,3.24,3.24,0,0,0-4.45-1.2,3.37,3.37,0,0,0-.75.59l-7.55-4.4a3.54,3.54,0,0,0,.14-.93,3.27,3.27,0,1,0-6.54,0,3.54,3.54,0,0,0,.13.93l-7.55,4.4a3.1,3.1,0,0,0-.74-.59,3.24,3.24,0,0,0-4.46,1.2,3.33,3.33,0,0,0,1.2,4.5,3.24,3.24,0,0,0,.88.35v8.8a3.43,3.43,0,0,0-.85.34,3.31,3.31,0,0,0-1.2,4.51,3.25,3.25,0,0,0,4.45,1.2,3.78,3.78,0,0,0,.72-.59l7.55,4.4a3.54,3.54,0,0,0-.13.93,3.26,3.26,0,1,0,6.51,0,3.19,3.19,0,0,0-.16-1l7.5-4.37a3.07,3.07,0,0,0,.8.67,3.24,3.24,0,0,0,4.45-1.2,3.31,3.31,0,0,0-1.2-4.51,3.43,3.43,0,0,0-.85-.34v-8.8A3.37,3.37,0,0,0,669.67,22.78ZM642.86,32l-.13,0v-8.8A3.31,3.31,0,0,0,645.1,19l7.55-4.4a.3.3,0,0,1,.08.08Zm14.54,8.53a3.2,3.2,0,0,0-2.4-1.06,3.27,3.27,0,0,0-2.35,1L645.08,36c0-.05,0-.08,0-.13h19.75a1.6,1.6,0,0,0,0,.21Zm7.79-7a3.22,3.22,0,0,0-.34.88H645.13a4.24,4.24,0,0,0-.35-.88,3.16,3.16,0,0,0-.58-.74l9.87-17.25a3.39,3.39,0,0,0,.91.13,3.32,3.32,0,0,0,.9-.13l9.87,17.25A4.47,4.47,0,0,0,665.19,33.47Zm2.06-1.54-.14,0-9.87-17.24.08-.08,7.55,4.4a3.3,3.3,0,0,0,2.38,4.1Z"
    style="fill: #fff"
  />
  <path
    d="M26.71,16.39a6.81,6.81,0,0,0-2.94-2.88,9.59,9.59,0,0,0-4.51-1,9.27,9.27,0,0,0-7.17,2.94,11.13,11.13,0,0,0-2.7,7.84q0,5.24,2.83,8.17A10.33,10.33,0,0,0,20,34.4a9.45,9.45,0,0,0,5.75-1.73,9.79,9.79,0,0,0,3.42-5H17.48V20.92H37.56v8.57a18.27,18.27,0,0,1-9.72,11.22,19.3,19.3,0,0,1-8.52,1.83,20.25,20.25,0,0,1-10-2.45,17.48,17.48,0,0,1-6.85-6.82A20,20,0,0,1,0,23.29a20.11,20.11,0,0,1,2.46-10A17.48,17.48,0,0,1,9.28,6.44,20.08,20.08,0,0,1,19.26,4,19.42,19.42,0,0,1,30.73,7.28a15.54,15.54,0,0,1,6.18,9.11Z"
    style="fill: #fff"
  />
  <path
    d="M56,13.29a10.42,10.42,0,0,1,5.39-1.43v9.76H58.82a7.75,7.75,0,0,0-5.18,1.48c-1.16,1-1.73,2.73-1.73,5.21v14H42.68V12.18h9.23v5A12.19,12.19,0,0,1,56,13.29Z"
    style="fill: #fff"
  />
  <path
    d="M65.7,19a13.08,13.08,0,0,1,4.77-5.39,12.47,12.47,0,0,1,6.75-1.89,11.5,11.5,0,0,1,5.58,1.3,9.58,9.58,0,0,1,3.7,3.39V12.18h9.22V42.27H86.5V38a10.05,10.05,0,0,1-3.75,3.4,11.65,11.65,0,0,1-5.59,1.29,12.32,12.32,0,0,1-6.69-1.91,13.19,13.19,0,0,1-4.77-5.45,18.1,18.1,0,0,1-1.76-8.17A18,18,0,0,1,65.7,19Zm18.88,2.75a6.5,6.5,0,0,0-9.33,0,7.45,7.45,0,0,0-1.92,5.42,7.64,7.64,0,0,0,1.92,5.48,6.42,6.42,0,0,0,9.33,0,7.51,7.51,0,0,0,1.92-5.44A7.54,7.54,0,0,0,84.58,21.78Z"
    style="fill: #fff"
  />
  <path
    d="M115.37,13.05a11.33,11.33,0,0,1,5.55-1.3,12.47,12.47,0,0,1,6.75,1.89A13.15,13.15,0,0,1,132.44,19a18,18,0,0,1,1.76,8.14,18.1,18.1,0,0,1-1.76,8.17,13.26,13.26,0,0,1-4.77,5.45,12.4,12.4,0,0,1-6.75,1.91,11.52,11.52,0,0,1-5.53-1.29,10.19,10.19,0,0,1-3.75-3.35V56.61h-9.23V12.18h9.23v4.26A10,10,0,0,1,115.37,13.05Zm7.52,8.7a6.33,6.33,0,0,0-4.72-2,6.24,6.24,0,0,0-4.67,2,7.57,7.57,0,0,0-1.91,5.45,7.55,7.55,0,0,0,1.91,5.44,6.47,6.47,0,0,0,9.37,0,7.61,7.61,0,0,0,1.94-5.48A7.45,7.45,0,0,0,122.89,21.75Z"
    style="fill: #fff"
  />
  <path
    d="M165.87,15.28Q169,18.72,169,24.69V42.27h-9.17V25.93a6.63,6.63,0,0,0-1.57-4.69,6.14,6.14,0,0,0-8.42,0,6.62,6.62,0,0,0-1.56,4.69V42.27h-9.23V2.37h9.23V16.23a9.8,9.8,0,0,1,3.83-3.18,12.25,12.25,0,0,1,5.45-1.19A10.73,10.73,0,0,1,165.87,15.28Z"
    style="fill: #fff"
  />
  <path
    d="M202.4,48.74l-4.86-6.52a21.94,21.94,0,0,1-4.2.43,19.83,19.83,0,0,1-9.8-2.48,18.66,18.66,0,0,1-7.07-6.93,19.4,19.4,0,0,1-2.61-10,19.28,19.28,0,0,1,2.61-10,18.73,18.73,0,0,1,7.07-6.9,20.58,20.58,0,0,1,19.59,0,18.22,18.22,0,0,1,7,6.9,19.55,19.55,0,0,1,2.57,10,19.94,19.94,0,0,1-2,8.87,18.49,18.49,0,0,1-5.48,6.66l8.31,10ZM186,31.24a9.41,9.41,0,0,0,7.32,3,9.29,9.29,0,0,0,7.25-3,11.47,11.47,0,0,0,2.73-8,11.43,11.43,0,0,0-2.73-8,9.33,9.33,0,0,0-7.25-3,9.49,9.49,0,0,0-7.32,3,11.46,11.46,0,0,0-2.72,8A11.44,11.44,0,0,0,186,31.24Z"
    style="fill: #fff"
  />
  <path d="M227.17,35.15h12.09v7.12H217.94V4.42h9.23Z" style="fill: #fff" />
  <path
    d="M244.54,13.29a17.42,17.42,0,0,1,6.77-6.85A19.75,19.75,0,0,1,261.16,4a18.87,18.87,0,0,1,11.55,3.56,17.07,17.07,0,0,1,6.42,9.7H269a8.26,8.26,0,0,0-3.21-3.61,9,9,0,0,0-4.73-1.24,8.79,8.79,0,0,0-6.9,3,11.4,11.4,0,0,0-2.65,7.92,11.45,11.45,0,0,0,2.65,7.93,8.82,8.82,0,0,0,6.9,3,9,9,0,0,0,4.73-1.24A8.21,8.21,0,0,0,269,29.33h10.14A17,17,0,0,1,272.71,39a19,19,0,0,1-11.55,3.53,19.75,19.75,0,0,1-9.85-2.45,17.48,17.48,0,0,1-6.77-6.82,20.21,20.21,0,0,1-2.43-10A20.31,20.31,0,0,1,244.54,13.29Z"
    style="fill: #fff"
  />
  <path
    d="M290.54,40.81A13.71,13.71,0,0,1,285,35.42a16.08,16.08,0,0,1-2-8.19A15.94,15.94,0,0,1,285,19.06a13.93,13.93,0,0,1,5.61-5.42,17.83,17.83,0,0,1,16,0,13.93,13.93,0,0,1,5.61,5.42,15.94,15.94,0,0,1,2.05,8.17,15.78,15.78,0,0,1-2.08,8.17,14,14,0,0,1-5.66,5.41,17,17,0,0,1-8,1.89A16.62,16.62,0,0,1,290.54,40.81Zm12.47-8a7.69,7.69,0,0,0,1.86-5.55,7.85,7.85,0,0,0-1.81-5.56,6.13,6.13,0,0,0-8.93,0,7.87,7.87,0,0,0-1.78,5.58,8,8,0,0,0,1.75,5.55,5.7,5.7,0,0,0,4.4,1.94A6,6,0,0,0,303,32.78Z"
    style="fill: #fff"
  />
  <path
    d="M346,15.28q3.15,3.44,3.16,9.41V42.27h-9.18V25.93a6.62,6.62,0,0,0-1.56-4.69,6.14,6.14,0,0,0-8.42,0,6.62,6.62,0,0,0-1.56,4.69V42.27h-9.23V12.18h9.23v4A9.74,9.74,0,0,1,332.17,13a12.11,12.11,0,0,1,5.35-1.16A10.93,10.93,0,0,1,346,15.28Z"
    style="fill: #fff"
  />
  <path
    d="M370.65,19.84h-5V42.27h-9.23V19.84h-3.34V12.18h3.34v-.86c0-3.7,1.07-6.51,3.19-8.44S364.87,0,369,0c.69,0,1.19,0,1.51.05V7.87a5.28,5.28,0,0,0-3.72.76,4.14,4.14,0,0,0-1.08,3.29v.26h5Z"
    style="fill: #fff"
  />
  <path
    d="M398.46,32.12A36.49,36.49,0,0,0,403.93,26a11.11,11.11,0,0,0,2.22-6.32,7,7,0,0,0-1.41-4.6,5.68,5.68,0,0,0-4.57-1.69,6,6,0,0,0-4.74,1.91,8,8,0,0,0-1.82,5.1h-4q.18-5,3.06-7.77a11.62,11.62,0,0,1,14.77-.18,9.23,9.23,0,0,1,2.72,7A13.38,13.38,0,0,1,408,26.73a31.92,31.92,0,0,1-5.05,6.2q-2.84,2.67-7.24,6.22h15.47v3.42H389.52V39.65C393.32,36.59,396.31,34.08,398.46,32.12Z"
    style="fill: #fff"
  />
  <path
    d="M418.38,14.29Q420.9,10,427.2,10T436,14.29q2.52,4.34,2.51,12.06T436,38.57q-2.52,4.36-8.77,4.36t-8.82-4.36q-2.52-4.37-2.51-12.22T418.38,14.29Zm15.54,5.43a8.43,8.43,0,0,0-2.11-4.38,6.1,6.1,0,0,0-4.61-1.66,6.17,6.17,0,0,0-4.66,1.66,8.43,8.43,0,0,0-2.11,4.38,36.52,36.52,0,0,0-.52,6.63,37.76,37.76,0,0,0,.52,6.78,8.46,8.46,0,0,0,2.11,4.41,6.21,6.21,0,0,0,4.66,1.66,6.13,6.13,0,0,0,4.61-1.66,8.46,8.46,0,0,0,2.11-4.41,37.76,37.76,0,0,0,.52-6.78A36.52,36.52,0,0,0,433.92,19.72Z"
    style="fill: #fff"
  />
  <path
    d="M452.56,32.12A36,36,0,0,0,458,26a11.05,11.05,0,0,0,2.23-6.32,6.9,6.9,0,0,0-1.42-4.6,5.65,5.65,0,0,0-4.56-1.69,6,6,0,0,0-4.75,1.91,8,8,0,0,0-1.82,5.1h-3.95q.17-5,3.05-7.77a11.62,11.62,0,0,1,14.77-.18,9.2,9.2,0,0,1,2.73,7,13.47,13.47,0,0,1-2.23,7.26,32,32,0,0,1-5.06,6.2q-2.83,2.67-7.24,6.22h15.47v3.42H443.61V39.65Q449.33,35.06,452.56,32.12Z"
    style="fill: #fff"
  />
  <path
    d="M473.06,12.15a11.47,11.47,0,0,1,7.47-2.34,11.68,11.68,0,0,1,5.28,1.11,7.75,7.75,0,0,1,4.52,7.25,7.5,7.5,0,0,1-1.6,4.81,7.09,7.09,0,0,1-4.16,2.6v.23a8.32,8.32,0,0,1,4.64,2.83,8.51,8.51,0,0,1,1.7,5.53,9.19,9.19,0,0,1-1.16,4.6A8,8,0,0,1,486.24,42a12.44,12.44,0,0,1-5.62,1.17,12,12,0,0,1-7.83-2.49,9.63,9.63,0,0,1-3.41-7.08h3.95A6.8,6.8,0,0,0,475.54,38a7.24,7.24,0,0,0,5,1.7,6.46,6.46,0,0,0,4.79-1.64A5.71,5.71,0,0,0,487,33.81,5.39,5.39,0,0,0,484.75,29c-1.5-1-3.76-1.48-6.79-1.48h-1V24.06H478a12.19,12.19,0,0,0,6.25-1.37,4.52,4.52,0,0,0,2.11-4.11,4.94,4.94,0,0,0-1.55-3.82,6.27,6.27,0,0,0-4.43-1.44,6.71,6.71,0,0,0-4.49,1.44,5.82,5.82,0,0,0-2,3.86h-4A8.8,8.8,0,0,1,473.06,12.15Z"
    style="fill: #fff"
  />
</svg>
