<svg xmlns="http://www.w3.org/2000/svg" viewBox="0 0 50 54" fill="#0f766e">
  <path
    d="M1.99 20.27c.62.21 1.29.33 1.98.33.62 0 1.22-.1 1.79-.27v16.41c0 .58.31 1.12.81 1.41l15.69 9.13c.74-.87 1.84-1.43 3.07-1.43 1.34 0 2.52.66 3.26 1.67.01.02.03.04.04.05.05.07.1.15.15.23l.05.09c.04.07.08.14.12.22l.06.12.09.21.06.15c.02.06.04.13.06.2.02.06.03.13.05.19l.04.18c.02.08.03.16.04.24 0 .05.02.09.02.14.01.13.02.26.02.4 0 .21-.02.42-.05.62v.08c-.34 1.91-2 3.37-3.99 3.37-1.78 0-3.29-1.16-3.83-2.77L4.69 41.45a5.433 5.433 0 0 1-2.7-4.7V20.27Zm44.04-9.98c2.23 0 4.04 1.83 4.04 4.07 0 1.22-.54 2.32-1.39 3.06v19.32c0 1.94-1.03 3.73-2.7 4.7l-14.45 8.4a6.327 6.327 0 0 0-1.24-3.67l13.81-8.03c.5-.29.81-.83.81-1.41V18.27a4.077 4.077 0 0 1-2.93-3.91c0-.9.3-1.74.79-2.41 0-.01.02-.02.02-.03.09-.12.19-.25.3-.36v-.02c.24-.23.48-.44.75-.61.03-.02.06-.04.09-.05.11-.06.22-.13.33-.18.03-.02.07-.03.1-.05.14-.06.29-.12.44-.17l.29-.08c.3-.07.61-.11.93-.11ZM25.34 0c.93 0 1.86.24 2.7.73l14.54 8.45c-1.07.73-1.9 1.78-2.35 3.02L26.15 4.02c-.25-.14-.53-.22-.81-.22s-.56.07-.81.22L7.95 13.66a4.09 4.09 0 0 1-2.59 4.53c-.01 0-.02 0-.04.01-.12.04-.25.08-.37.11l-.08.02c-.12.03-.24.05-.36.07h-.1c-.15.03-.3.04-.45.04a4.028 4.028 0 0 1-.98-.12c-.04 0-.07-.02-.11-.03-.32-.09-.62-.21-.9-.37l-.24-.15a4.069 4.069 0 0 1-1.82-3.4c.02-2.25 1.83-4.08 4.06-4.08.58 0 1.13.12 1.63.35L22.64.73c.83-.48 1.77-.73 2.7-.73Z"
    fill-rule="evenodd"
  />
  <path
    d="m29.74 23.94 2.59-1.88c.39-.28.84-.43 1.32-.43h.99c.13.74.82 1.31 1.67 1.31h3c.93 0 1.69-.7 1.69-1.55v-1.32c0-.86-.76-1.55-1.69-1.55h-3c-.84 0-1.54.57-1.67 1.32h-.99c-.86 0-1.68.27-2.37.77l-2.59 1.88c-.38.28-.85.43-1.32.43h-5.74c-.37-.25-.81-.4-1.29-.4h-8.38c-1.25 0-2.27 1.02-2.27 2.27v4.43c0 1.25 1.02 2.27 2.27 2.27h8.38c.48 0 .92-.15 1.29-.4h5.74c.48 0 .93.15 1.32.43l2.59 1.88c.69.5 1.52.77 2.37.77h.99c.13.74.82 1.31 1.67 1.31h3c.93 0 1.69-.7 1.69-1.55v-1.32c0-.86-.76-1.55-1.69-1.55h-3c-.84 0-1.54.57-1.67 1.31h-.99c-.48 0-.93-.15-1.32-.43l-2.59-1.88c-.69-.5-1.51-.77-2.37-.77H22.6V27.91h12.03c.13.74.82 1.31 1.67 1.31h3c.93 0 1.69-.7 1.69-1.55v-1.32c0-.86-.76-1.55-1.69-1.55h-3c-.84 0-1.54.57-1.67 1.32H22.6V24.74h4.77c.86 0 1.68-.27 2.37-.77Zm6.67-3.62h2.78v.83h-2.78v-.83Zm0 12.53h2.78v.83h-2.78v-.83Zm0-6.27h2.78v.83h-2.78v-.83Zm-16.07 3.1h-8.38a.47.47 0 0 1-.47-.47v-4.43c0-.26.21-.47.47-.47h8.38c.26 0 .47.21.47.47v4.43c0 .26-.21.47-.47.47Z"
  />
</svg>
