<svg width="51" height="54" viewBox="0 0 51 54" fill="#8c0082" xmlns="http://www.w3.org/2000/svg">
    <path fill-rule="evenodd" clip-rule="evenodd"
          d="M2.20473 20.2745C2.82801 20.4867 3.49281 20.6073 4.18673 20.6073C4.80999 20.6073 5.41118 20.5117 5.97891 20.3391V36.7481C5.97891 37.328 6.28841 37.8684 6.78767 38.1582L22.4819 47.2835C23.2242 46.4108 24.3236 45.8554 25.5512 45.8554C26.8874 45.8554 28.0698 46.5134 28.8067 47.5218C28.8197 47.5403 28.8337 47.5576 28.8467 47.5756C28.8985 47.6494 28.9469 47.7248 28.9939 47.8026L29.0477 47.891C29.0893 47.9626 29.1277 48.0355 29.1642 48.1093C29.1842 48.1489 29.2031 48.1891 29.222 48.2294C29.2533 48.2978 29.2828 48.3673 29.3109 48.4378C29.3309 48.4882 29.3487 48.5388 29.3665 48.5899C29.389 48.6544 29.4112 48.7195 29.4301 48.7852C29.4484 48.8477 29.463 48.9107 29.4787 48.9737L29.519 49.1513C29.5346 49.23 29.5449 49.3097 29.5557 49.3902C29.5616 49.4379 29.5708 49.4847 29.5751 49.5324C29.5876 49.6627 29.5951 49.7941 29.5951 49.9277C29.5951 50.1406 29.5741 50.3474 29.5422 50.5516L29.5309 50.6275C29.2004 52.5406 27.5435 54 25.5512 54C23.7746 54 22.2655 52.8386 21.7237 51.2314L4.90059 41.4502C3.23184 40.4806 2.20473 38.6876 2.20473 36.7481V20.2745ZM46.2419 10.2908C48.4719 10.2908 50.2856 12.1173 50.2856 14.3631C50.2856 15.5848 49.7465 16.6794 48.8978 17.4265V36.7481C48.8978 38.6876 47.8707 40.4806 46.2019 41.4502L31.7479 49.8539C31.7317 48.479 31.2702 47.2135 30.5047 46.1876L44.315 38.1582C44.8141 37.8684 45.1237 37.328 45.1237 36.7481V18.2736C43.4366 17.7838 42.1982 16.2179 42.1982 14.3631C42.1982 13.4601 42.4952 12.6277 42.9913 11.9517C42.9988 11.9409 43.0069 11.9306 43.0145 11.9197C43.1083 11.7948 43.2085 11.6743 43.3153 11.5608L43.3298 11.545C43.5514 11.3127 43.7995 11.1079 44.0702 10.9337C44.0981 10.9152 44.1278 10.8984 44.1564 10.8804C44.2637 10.8158 44.3731 10.755 44.4863 10.7002C44.5193 10.6844 44.5522 10.6671 44.5855 10.6519C44.7274 10.5878 44.8719 10.5286 45.0218 10.4814L45.3158 10.3994C45.6133 10.3287 45.9233 10.2908 46.2419 10.2908ZM25.5511 0C26.4822 0 27.4128 0.242165 28.2469 0.72704L42.7868 9.18112C41.7165 9.90759 40.8883 10.9637 40.4327 12.2006L26.3598 4.01908C26.1146 3.87572 25.8347 3.80081 25.5511 3.80081C25.2676 3.80081 24.9882 3.87572 24.7423 4.01908L8.16563 13.6574C8.20551 13.887 8.23032 14.1216 8.23032 14.3632C8.23032 16.1154 7.12395 17.608 5.57922 18.1814C5.56736 18.1858 5.55496 18.1906 5.5431 18.1944C5.42072 18.2385 5.29671 18.2765 5.16945 18.3085L5.09344 18.328C4.97698 18.3551 4.85782 18.3764 4.73812 18.3931L4.64054 18.4079C4.4912 18.4246 4.34021 18.4356 4.18656 18.4356C4.02212 18.4356 3.86037 18.4225 3.70022 18.403C3.65709 18.3974 3.61505 18.3899 3.57244 18.3834C3.44952 18.3643 3.32874 18.34 3.20958 18.3101C3.17291 18.3008 3.13626 18.2921 3.0996 18.2819C2.78418 18.1922 2.48439 18.0679 2.20457 17.9088L1.96423 17.7607C0.86844 17.0318 0.142792 15.7822 0.142792 14.3632C0.142792 12.1175 1.9571 10.2909 4.18656 10.2909C4.76508 10.2909 5.31396 10.4158 5.8116 10.6368L22.8552 0.72704C23.6893 0.242165 24.6205 0 25.5511 0Z"
    />
    <path d="M15.4607 35.5C15.1864 35.5 14.8207 35.41 14.6378 35.1396C14.0893 34.689 14.0893 33.8779 14.5464 33.3372L20.489 26.7582L14.6378 20.6299C14.1807 20.0891 14.1807 19.278 14.7293 18.8274C15.2778 18.3768 16.1006 18.3769 16.5578 18.9176L23.2318 25.9471C23.6889 26.3977 23.6889 27.2088 23.2318 27.6594L16.5578 35.1396C16.1921 35.41 15.8264 35.5 15.4607 35.5ZM36.2142 34.2384C36.2142 33.5174 35.6656 32.9766 34.9342 32.9766H24.3289C23.5975 32.9766 23.0489 33.5174 23.0489 34.2384C23.0489 34.9594 23.5975 35.5 24.3289 35.5H34.9342C35.6656 35.5 36.2142 34.9594 36.2142 34.2384Z"
    />
</svg>
