<svg width="51" height="54" viewBox="0 0 51 54" fill="#0284c7" xmlns="http://www.w3.org/2000/svg">
  <path
    fill-rule="evenodd"
    clip-rule="evenodd"
    d="M2.3475 20.2745C2.97079 20.4867 3.63558 20.6073 4.3295 20.6073C4.95277 20.6073 5.55395 20.5117 6.12169 20.3391V36.7481C6.12169 37.328 6.43118 37.8684 6.93045 38.1582L22.6246 47.2835C23.367 46.4108 24.4664 45.8554 25.694 45.8554C27.0301 45.8554 28.2126 46.5134 28.9495 47.5218C28.9625 47.5403 28.9765 47.5576 28.9894 47.5756C29.0413 47.6494 29.0897 47.7248 29.1367 47.8026L29.1905 47.891C29.2321 47.9626 29.2704 48.0355 29.307 48.1093C29.3269 48.1489 29.3458 48.1891 29.3647 48.2294C29.3961 48.2978 29.4256 48.3673 29.4537 48.4378C29.4736 48.4882 29.4915 48.5388 29.5093 48.5899C29.5318 48.6544 29.5539 48.7195 29.5728 48.7852C29.5912 48.8477 29.6058 48.9107 29.6214 48.9737L29.6618 49.1513C29.6774 49.23 29.6877 49.3097 29.6985 49.3902C29.7044 49.4379 29.7136 49.4847 29.7179 49.5324C29.7303 49.6627 29.7379 49.7941 29.7379 49.9277C29.7379 50.1406 29.7168 50.3474 29.685 50.5516L29.6736 50.6275C29.3431 52.5406 27.6862 54 25.694 54C23.9174 54 22.4083 52.8386 21.8665 51.2314L5.04336 41.4502C3.37462 40.4806 2.3475 38.6876 2.3475 36.7481V20.2745ZM46.3846 10.2908C48.6147 10.2908 50.4283 12.1173 50.4283 14.3631C50.4283 15.5848 49.8893 16.6794 49.0406 17.4265V36.7481C49.0406 38.6876 48.0135 40.4806 46.3447 41.4502L31.8907 49.8539C31.8745 48.479 31.413 47.2135 30.6474 46.1876L44.4577 38.1582C44.9569 37.8684 45.2665 37.328 45.2665 36.7481V18.2736C43.5793 17.7838 42.341 16.2179 42.341 14.3631C42.341 13.4601 42.638 12.6277 43.134 11.9517C43.1416 11.9409 43.1497 11.9306 43.1572 11.9197C43.251 11.7948 43.3513 11.6743 43.458 11.5608L43.4726 11.545C43.6942 11.3127 43.9422 11.1079 44.213 10.9337C44.2409 10.9152 44.2705 10.8984 44.2992 10.8804C44.4064 10.8158 44.5159 10.755 44.6291 10.7002C44.662 10.6844 44.695 10.6671 44.7283 10.6519C44.8701 10.5878 45.0147 10.5286 45.1646 10.4814L45.4585 10.3994C45.7561 10.3287 46.066 10.2908 46.3846 10.2908ZM25.6938 0C26.625 0 27.5556 0.242165 28.3897 0.72704L42.9296 9.18112C41.8593 9.90759 41.0311 10.9637 40.5755 12.2006L26.5026 4.01908C26.2574 3.87572 25.9775 3.80081 25.6938 3.80081C25.4103 3.80081 25.131 3.87572 24.8851 4.01908L8.3084 13.6574C8.34829 13.887 8.37309 14.1216 8.37309 14.3632C8.37309 16.1154 7.26672 17.608 5.722 18.1814C5.71014 18.1858 5.69774 18.1906 5.68587 18.1944C5.56349 18.2385 5.43949 18.2765 5.31223 18.3085L5.23622 18.328C5.11976 18.3551 5.0006 18.3764 4.8809 18.3931L4.78332 18.4079C4.63397 18.4246 4.48299 18.4356 4.32934 18.4356C4.16489 18.4356 4.00314 18.4225 3.843 18.403C3.79987 18.3974 3.75782 18.3899 3.71522 18.3834C3.59229 18.3643 3.47151 18.34 3.35235 18.3101C3.31569 18.3008 3.27904 18.2921 3.24237 18.2819C2.92696 18.1922 2.62717 18.0679 2.34734 17.9088L2.10701 17.7607C1.01122 17.0318 0.285568 15.7822 0.285568 14.3632C0.285568 12.1175 2.09988 10.2909 4.32934 10.2909C4.90786 10.2909 5.45673 10.4158 5.95438 10.6368L22.998 0.72704C23.8321 0.242165 24.7632 0 25.6938 0Z"
  />
  <path
    d="M37.1462 17.7764C37.1462 17.662 37.1157 17.5552 37.0776 17.4484C37.07 17.4179 37.0547 17.395 37.0471 17.3721C37.0013 17.2806 36.9479 17.2043 36.8869 17.128C36.8793 17.1204 36.8716 17.1128 36.864 17.0975C36.803 17.0365 36.7343 16.9831 36.6504 16.9373L29.4956 13.0471L29.9227 12.1318C30.1821 11.8114 30.3346 11.4453 30.3499 11.0563C30.3499 11.0487 30.3499 11.041 30.3499 11.0258C30.3499 11.0181 30.3499 11.0105 30.3499 11.0029C30.3499 9.54597 28.4887 8.48571 25.9181 8.48571C23.3476 8.48571 21.4864 9.54597 21.4864 11.0029C21.4864 11.3843 21.6161 11.7275 21.8525 12.0403L22.2415 12.948L15.1629 16.9144C15.1324 16.9373 15.1019 16.9602 15.0714 16.9831C15.0333 17.006 15.0027 17.0288 14.9722 17.0594C14.9417 17.0899 14.9265 17.1204 14.9036 17.1509C14.8731 17.189 14.8426 17.2195 14.8197 17.2577C14.8044 17.2882 14.7892 17.3263 14.7739 17.3568C14.7587 17.4026 14.7358 17.4407 14.7205 17.4865C14.7053 17.5247 14.7053 17.5704 14.7053 17.6162C14.7053 17.6543 14.69 17.6925 14.69 17.7306V28.4934L10.5939 30.4995C10.5863 30.4995 10.571 30.5148 10.5634 30.5224C10.5481 30.5224 10.5405 30.53 10.5252 30.5377C10.4947 30.5529 10.4718 30.5834 10.4413 30.5987C10.4108 30.6216 10.3803 30.6445 10.3498 30.6673C10.3193 30.6979 10.2888 30.736 10.2583 30.7741C10.2354 30.8046 10.2125 30.8275 10.1896 30.8657C10.1667 30.9038 10.1515 30.9496 10.1286 30.9953C10.1133 31.0259 10.0981 31.064 10.0904 31.0945C10.0752 31.1403 10.0752 31.186 10.0676 31.2394C10.0676 31.2699 10.0523 31.3005 10.0523 31.3386C10.0523 31.3386 10.0523 31.3462 10.0523 31.3539C10.0523 31.3539 10.0523 31.3615 10.0523 31.3691V34.7558C10.0523 35.0991 10.243 35.4195 10.5405 35.5873L20.9906 41.3997C21.0363 41.4225 21.0821 41.4378 21.1279 41.4531C21.1584 41.4607 21.1813 41.4759 21.2042 41.4836C21.2804 41.5065 21.3643 41.5141 21.4482 41.5141C21.5321 41.5141 21.6084 41.5065 21.6923 41.4836C21.7228 41.4836 21.7457 41.4607 21.7762 41.4531C21.822 41.4378 21.8678 41.4225 21.9135 41.3997L36.6428 33.3371C36.9479 33.1693 37.1386 32.8489 37.1386 32.498V17.784L37.1462 17.7764ZM25.9181 10.4003C27.2225 10.4003 28.0615 10.7512 28.3514 10.9876L28.3209 11.0563C28.0005 11.2851 27.1843 11.6131 25.9181 11.6131C24.6519 11.6131 23.7823 11.2622 23.4925 11.0334L23.4772 10.9876C23.7595 10.7588 24.5985 10.3927 25.9258 10.3927L25.9181 10.4003ZM27.2072 13.4285L26.2538 15.4575C26.0936 15.8008 25.5215 15.7931 25.3689 15.4423L24.4994 13.4056C24.9418 13.4819 25.4147 13.5201 25.9181 13.5201C26.3758 13.5201 26.803 13.4819 27.2072 13.4209V13.4285ZM22.9967 14.7329L23.6222 16.1898C23.9959 17.0746 24.8579 17.6391 25.819 17.6391C26.7801 17.6391 27.5886 17.0975 27.9853 16.2661L28.6794 14.7786L34.2172 17.7916L25.819 22.4827L25.7046 22.4141L17.5657 17.7535L22.9967 14.7176V14.7329ZM24.8579 24.138V33.4439L19.5565 30.4995L16.5893 28.8519V19.3935L24.8579 24.1303V24.138ZM20.51 38.9359L11.9669 34.1838V32.9786L20.51 37.7307V38.9359ZM21.494 36.0983L13.0805 31.4149L15.3231 30.3241L23.7366 34.9999L22.4551 35.6254L21.494 36.0907V36.0983ZM35.2393 31.9259L22.417 38.9435V37.7688L26.2156 35.9229C26.2156 35.9229 26.2385 35.9076 26.2461 35.9C26.2538 35.9 26.269 35.8924 26.2843 35.8848C26.3148 35.8695 26.3377 35.8466 26.3605 35.8237C26.3911 35.8009 26.4292 35.778 26.4521 35.7475C26.4673 35.7322 26.4826 35.7169 26.4978 35.7017C26.5131 35.6864 26.5284 35.6636 26.536 35.6483C26.5589 35.6178 26.5894 35.5873 26.6046 35.5568C26.6275 35.5186 26.6428 35.4729 26.6657 35.4347C26.6657 35.4271 26.6733 35.4195 26.6809 35.4042C26.6809 35.389 26.6962 35.3737 26.7038 35.3584C26.7038 35.3432 26.7038 35.3356 26.7114 35.3203C26.7267 35.2745 26.7267 35.2288 26.7343 35.183C26.7343 35.1525 26.7496 35.122 26.7496 35.0838C26.7496 35.0838 26.7496 35.0762 26.7496 35.0686C26.7496 35.0686 26.7496 35.0686 26.7496 35.0533L26.7648 24.1303L35.2393 19.3935V31.9183V31.9259Z"
  />
</svg>
