<svg width="51" height="54" viewBox="0 0 51 54" fill="none" xmlns="http://www.w3.org/2000/svg">
    <g clip-path="url(#clip0_2_49)">
        <path fill-rule="evenodd" clip-rule="evenodd"
              d="M2.20473 20.2745C2.82801 20.4867 3.49281 20.6073 4.18673 20.6073C4.80999 20.6073 5.41118 20.5117 5.97891 20.3391V36.7481C5.97891 37.328 6.28841 37.8684 6.78767 38.1582L22.4819 47.2835C23.2242 46.4108 24.3236 45.8554 25.5512 45.8554C26.8874 45.8554 28.0698 46.5134 28.8067 47.5218C28.8197 47.5403 28.8337 47.5576 28.8467 47.5756C28.8985 47.6494 28.9469 47.7248 28.9939 47.8026L29.0477 47.891C29.0893 47.9626 29.1277 48.0355 29.1642 48.1093C29.1842 48.1489 29.2031 48.1891 29.222 48.2294C29.2533 48.2978 29.2828 48.3673 29.3109 48.4378C29.3309 48.4882 29.3487 48.5388 29.3665 48.5899C29.389 48.6544 29.4112 48.7195 29.4301 48.7852C29.4484 48.8477 29.463 48.9107 29.4787 48.9737L29.519 49.1513C29.5346 49.23 29.5449 49.3097 29.5557 49.3902C29.5616 49.4379 29.5708 49.4847 29.5751 49.5324C29.5876 49.6627 29.5951 49.7941 29.5951 49.9277C29.5951 50.1406 29.5741 50.3474 29.5422 50.5516L29.5309 50.6275C29.2004 52.5406 27.5435 54 25.5512 54C23.7746 54 22.2655 52.8386 21.7237 51.2314L4.90059 41.4502C3.23184 40.4806 2.20473 38.6876 2.20473 36.7481V20.2745ZM46.2419 10.2908C48.4719 10.2908 50.2856 12.1173 50.2856 14.3631C50.2856 15.5848 49.7465 16.6794 48.8978 17.4265V36.7481C48.8978 38.6876 47.8707 40.4806 46.2019 41.4502L31.7479 49.8539C31.7317 48.479 31.2702 47.2135 30.5047 46.1876L44.315 38.1582C44.8141 37.8684 45.1237 37.328 45.1237 36.7481V18.2736C43.4366 17.7838 42.1982 16.2179 42.1982 14.3631C42.1982 13.4601 42.4952 12.6277 42.9913 11.9517C42.9988 11.9409 43.0069 11.9306 43.0145 11.9197C43.1083 11.7948 43.2085 11.6743 43.3153 11.5608L43.3298 11.545C43.5514 11.3127 43.7995 11.1079 44.0702 10.9337C44.0981 10.9152 44.1278 10.8984 44.1564 10.8804C44.2637 10.8158 44.3731 10.755 44.4863 10.7002C44.5193 10.6844 44.5522 10.6671 44.5855 10.6519C44.7274 10.5878 44.8719 10.5286 45.0218 10.4814L45.3158 10.3994C45.6133 10.3287 45.9233 10.2908 46.2419 10.2908ZM25.5511 0C26.4822 0 27.4128 0.242165 28.2469 0.72704L42.7868 9.18112C41.7165 9.90759 40.8883 10.9637 40.4327 12.2006L26.3598 4.01908C26.1146 3.87572 25.8347 3.80081 25.5511 3.80081C25.2676 3.80081 24.9882 3.87572 24.7423 4.01908L8.16563 13.6574C8.20551 13.887 8.23032 14.1216 8.23032 14.3632C8.23032 16.1154 7.12395 17.608 5.57922 18.1814C5.56736 18.1858 5.55496 18.1906 5.5431 18.1944C5.42072 18.2385 5.29671 18.2765 5.16945 18.3085L5.09344 18.328C4.97698 18.3551 4.85782 18.3764 4.73812 18.3931L4.64054 18.4079C4.4912 18.4246 4.34021 18.4356 4.18656 18.4356C4.02212 18.4356 3.86037 18.4225 3.70022 18.403C3.65709 18.3974 3.61505 18.3899 3.57244 18.3834C3.44952 18.3643 3.32874 18.34 3.20958 18.3101C3.17291 18.3008 3.13626 18.2921 3.0996 18.2819C2.78418 18.1922 2.48439 18.0679 2.20457 17.9088L1.96423 17.7607C0.86844 17.0318 0.142792 15.7822 0.142792 14.3632C0.142792 12.1175 1.9571 10.2909 4.18656 10.2909C4.76508 10.2909 5.31396 10.4158 5.8116 10.6368L22.8552 0.72704C23.6893 0.242165 24.6205 0 25.5511 0Z"
              fill="#FF00E5"/>
        <path d="M37.3609 18.722C37.2279 18.589 37.0846 18.4703 36.9318 18.3665C36.9899 17.5558 36.6883 16.7406 36.081 16.1332C35.4736 15.5258 34.6585 15.2243 33.8477 15.2824C33.7439 15.1296 33.6252 14.9862 33.4922 14.8533C32.5058 13.867 30.9629 13.7187 29.8782 14.4973C29.625 14.6579 29.5525 14.9307 29.5214 15.0478C29.5033 15.1161 28.8637 17.7301 28.6365 18.6761C27.9688 18.4779 27.2688 18.375 26.5528 18.375C24.6066 18.375 22.7769 19.133 21.4007 20.5092L18.7234 23.1865C17.3472 24.5627 16.5893 26.3924 16.5893 28.3386C16.5893 29.0546 16.6922 29.7547 16.8904 30.4223C15.9445 30.6495 13.3304 31.2891 13.2621 31.3072C13.1449 31.3383 12.8721 31.4108 12.7115 31.6641C11.9329 32.7488 12.0812 34.2916 13.0675 35.278C13.2005 35.4109 13.3438 35.5296 13.4966 35.6335C13.4385 36.4442 13.7401 37.2594 14.3475 37.8668C14.9548 38.4741 15.7701 38.7757 16.5808 38.7176C16.6846 38.8704 16.8033 39.0137 16.9363 39.1467C17.4996 39.71 18.2445 40 18.982 40C19.5356 40 20.0851 39.8366 20.5502 39.5026C20.8034 39.342 20.8759 39.0692 20.907 38.9522C20.9251 38.8839 21.5647 36.2698 21.7919 35.3238C22.4596 35.522 23.1596 35.6249 23.8756 35.6249C25.8218 35.6249 27.6515 34.867 29.0277 33.4908L31.705 30.8135C33.0812 29.4373 33.8391 27.6076 33.8391 25.6613C33.8391 24.9454 33.7362 24.2453 33.538 23.5777C34.4839 23.3505 37.098 22.7109 37.1663 22.6927C37.2835 22.6616 37.5562 22.5892 37.7168 22.336C38.4955 21.2513 38.3472 19.7083 37.3609 18.722ZM23.9882 20.498C24.7425 20.1224 25.5757 19.9166 26.4403 19.9002V33.502C25.686 33.8776 24.8528 34.0834 23.9882 34.0999V20.498ZM19.8008 24.2638L22.4644 21.6003V33.9281C21.465 33.6776 20.5483 33.1608 19.8008 32.4134C18.7124 31.325 18.113 29.8779 18.113 28.3386C18.113 26.7994 18.7125 25.3523 19.8008 24.2638ZM19.4842 38.3689C19.0174 38.5877 18.4207 38.4763 18.0137 38.0693C17.8749 37.9304 17.7686 37.7689 17.6978 37.5893L17.4367 36.9271L16.7582 37.1427C16.3066 37.2864 15.7833 37.1476 15.425 36.7893C15.0667 36.431 14.928 35.9077 15.0716 35.456L15.2872 34.7776L14.625 34.5165C14.4454 34.4457 14.2839 34.3394 14.1451 34.2005C13.738 33.7935 13.6266 33.1969 13.8454 32.7301C14.4139 32.5864 15.8312 32.2435 17.486 31.8462C17.8144 32.4425 18.2287 32.9961 18.7235 33.4908C19.2182 33.9855 19.7717 34.3998 20.368 34.7283C19.9708 36.3831 19.6279 37.8004 19.4842 38.3689ZM30.6277 29.7361L27.9641 32.3997V20.0719C28.9636 20.3223 29.8802 20.8391 30.6277 21.5866C31.7161 22.675 32.3155 24.1221 32.3155 25.6613C32.3155 27.2006 31.716 28.6477 30.6277 29.7361ZM36.5831 21.2699C36.0146 21.4136 34.5974 21.7565 32.9425 22.1537C32.6141 21.5574 32.1998 21.0039 31.705 20.5091C31.2103 20.0144 30.6568 19.6001 30.0605 19.2717C30.4577 17.6169 30.8006 16.1995 30.9443 15.631C31.4111 15.4123 32.0078 15.5237 32.4148 15.9307C32.5537 16.0696 32.66 16.231 32.7308 16.4106L32.9919 17.0728L33.6703 16.8572C34.122 16.7137 34.6453 16.8524 35.0035 17.2107C35.3618 17.569 35.5006 18.0923 35.357 18.5439L35.1414 19.2223L35.8036 19.4835C35.9832 19.5543 36.1447 19.6606 36.2835 19.7994C36.6905 20.2065 36.8019 20.8031 36.5831 21.2699Z"
              fill="#FF00E5"/>
    </g>
    <defs>
        <clipPath id="clip0_2_49">
            <rect width="50.1428" height="54" fill="white" transform="translate(0.142792)"/>
        </clipPath>
    </defs>
</svg>
