<svg width="58" height="62" viewBox="0 0 58 62" fill="none" xmlns="http://www.w3.org/2000/svg">
  <path
    d="M5 11.3501C5.72791 11.3501 6.41949 11.5056 7.04332 11.7853L26.1439 0.800049C27.0439 0.300049 28.1439 0 29.1439 0C30.2439 0 31.2439 0.300049 32.1439 0.800049L48.5439 10.3C47.3439 11.1 46.4439 12.3 45.8439 13.7L29.9438 4.5C29.6439 4.30005 29.344 4.30005 29.0441 4.30005C28.7441 4.30005 28.4439 4.4 28.1439 4.5L9.82254 15.0251C9.93823 15.4471 10 15.8914 10 16.3501C10 19.1115 7.76142 21.3501 5 21.3501C2.23858 21.3501 0 19.1115 0 16.3501C0 13.5887 2.23858 11.3501 5 11.3501Z"
    fill="#3178C6" />
  <path
    d="M51.2438 21.0329C49.3487 20.3219 48 18.4934 48 16.35C48 13.5886 50.2386 11.35 53 11.35C55.7614 11.35 58 13.5886 58 16.35C58 18.1825 57.0142 19.7848 55.5439 20.6554V41.2C55.5439 43.4 54.3439 45.4 52.5439 46.5L36.1439 55.9C36.1439 54.4 35.6438 52.9 34.7438 51.8L50.3439 42.8C50.9439 42.5 51.2438 41.9 51.2438 41.2V21.0329Z"
    fill="#3178C6" />
  <path
    d="M33.8439 55.1055C33.9458 55.5034 34 55.9204 34 56.3501C34 59.1115 31.7614 61.3501 29 61.3501C26.5102 61.3501 24.4454 59.5302 24.0633 57.1481L5.84387 46.6C3.94387 45.5 2.84387 43.5 2.84387 41.3V22.8C3.54387 23 4.34388 23.2 5.04388 23.2C5.74388 23.2 6.44388 23.1 7.04388 22.9V41.3C7.04388 42 7.44385 42.6 7.94385 42.9L25.3263 52.9583C26.2398 51.9694 27.5476 51.3501 29 51.3501C31.3291 51.3501 33.2862 52.9426 33.8419 55.0981L33.8436 55.0997L33.8439 55.1055Z"
    fill="#3178C6" />
  <path
    d="M14.6606 28.56C15.3273 28.5467 15.8006 28.4267 16.0806 28.2C16.374 27.9733 16.5206 27.6333 16.5206 27.18C16.5206 26.86 16.454 26.22 16.3206 25.26C16.254 24.8467 16.194 24.42 16.1406 23.98C16.0873 23.5267 16.0606 23.1267 16.0606 22.78C16.0606 21.5533 16.434 20.6 17.1806 19.92C17.9406 19.24 18.9606 18.9 20.2406 18.9H21.7206V22.08H21.0006C20.574 22.08 20.2673 22.1733 20.0806 22.36C19.894 22.5467 19.8006 22.8267 19.8006 23.2C19.8006 23.4533 19.854 24.0467 19.9606 24.98C20.0806 26.18 20.1406 26.96 20.1406 27.32C20.1406 28.08 19.9606 28.7067 19.6006 29.2C19.254 29.6933 18.7206 30.0067 18.0006 30.14V30.18C18.7206 30.3133 19.254 30.6267 19.6006 31.12C19.9606 31.6133 20.1406 32.24 20.1406 33C20.1406 33.36 20.0806 34.14 19.9606 35.34C19.854 36.2733 19.8006 36.8733 19.8006 37.14C19.8006 37.5 19.894 37.7733 20.0806 37.96C20.2673 38.1467 20.574 38.24 21.0006 38.24H21.7206V41.42H20.2406C18.9606 41.42 17.9406 41.08 17.1806 40.4C16.434 39.72 16.0606 38.7667 16.0606 37.54C16.0606 37.1933 16.0873 36.8 16.1406 36.36C16.194 35.9067 16.254 35.4733 16.3206 35.06C16.454 34.1 16.5206 33.4667 16.5206 33.16C16.5206 32.2533 15.9006 31.78 14.6606 31.74V28.56ZM26.0044 37.16C25.311 37.16 24.751 36.9733 24.3244 36.6C23.911 36.2133 23.7044 35.7267 23.7044 35.14C23.7044 34.5533 23.911 34.0667 24.3244 33.68C24.751 33.2933 25.311 33.1 26.0044 33.1C26.6844 33.1 27.231 33.2933 27.6444 33.68C28.071 34.0667 28.2844 34.5533 28.2844 35.14C28.2844 35.7133 28.071 36.1933 27.6444 36.58C27.231 36.9667 26.6844 37.16 26.0044 37.16ZM32.02 37.16C31.3267 37.16 30.7667 36.9733 30.34 36.6C29.9267 36.2133 29.72 35.7267 29.72 35.14C29.72 34.5533 29.9267 34.0667 30.34 33.68C30.7667 33.2933 31.3267 33.1 32.02 33.1C32.7 33.1 33.2467 33.2933 33.66 33.68C34.0867 34.0667 34.3 34.5533 34.3 35.14C34.3 35.7133 34.0867 36.1933 33.66 36.58C33.2467 36.9667 32.7 37.16 32.02 37.16ZM43.3356 31.74C42.0956 31.78 41.4756 32.2533 41.4756 33.16C41.4756 33.4667 41.5423 34.1 41.6756 35.06C41.7423 35.4733 41.8023 35.9067 41.8556 36.36C41.909 36.8 41.9356 37.1933 41.9356 37.54C41.9356 38.7667 41.5556 39.72 40.7956 40.4C40.049 41.08 39.0356 41.42 37.7556 41.42H36.2756V38.24H36.9956C37.4223 38.24 37.729 38.1467 37.9156 37.96C38.1023 37.7733 38.1956 37.5 38.1956 37.14C38.1956 36.8733 38.1423 36.2733 38.0356 35.34C37.9156 34.14 37.8556 33.36 37.8556 33C37.8556 32.24 38.029 31.6133 38.3756 31.12C38.7356 30.6267 39.2756 30.3133 39.9956 30.18V30.14C39.2756 30.0067 38.7356 29.6933 38.3756 29.2C38.029 28.7067 37.8556 28.08 37.8556 27.32C37.8556 26.96 37.9156 26.18 38.0356 24.98C38.1423 24.0467 38.1956 23.4533 38.1956 23.2C38.1956 22.8267 38.1023 22.5467 37.9156 22.36C37.729 22.1733 37.4223 22.08 36.9956 22.08H36.2756V18.9H37.7556C39.0356 18.9 40.049 19.24 40.7956 19.92C41.5556 20.6 41.9356 21.5533 41.9356 22.78C41.9356 23.1267 41.909 23.5267 41.8556 23.98C41.8023 24.42 41.7423 24.8467 41.6756 25.26C41.5423 26.22 41.4756 26.86 41.4756 27.18C41.4756 27.6333 41.6156 27.9733 41.8956 28.2C42.189 28.4267 42.669 28.5467 43.3356 28.56V31.74Z"
    fill="#3178C6" />
</svg>