<svg
  xmlns="http://www.w3.org/2000/svg"
  width="118"
  height="32"
  viewBox="0 0 118 32"
  fill="currentColor"
>
  <path
    fill-rule="evenodd"
    clip-rule="evenodd"
    d="M16 2.20898L27.9434 9.10448V22.8955L16 29.791L4.05664 22.8955V9.10448L16 2.20898ZM5.3967 9.87818V20.008L14.1694 4.81325L5.3967 9.87818ZM16 4.32275L5.8872 21.8386H26.1128L16 4.32275ZM24.7727 23.1787H7.22726L16 28.2436L24.7727 23.1787ZM26.6033 20.008L17.8306 4.81325L26.6033 9.87818V20.008Z"
  />
  <path
    d="M15.9999 5.80508C17.5587 5.80508 18.8223 4.54145 18.8223 2.98268C18.8223 1.42391 17.5587 0.160278 15.9999 0.160278C14.4411 0.160278 13.1775 1.42391 13.1775 2.98268C13.1775 4.54145 14.4411 5.80508 15.9999 5.80508Z"
  />
  <path
    d="M27.2733 12.3137C28.8321 12.3137 30.0957 11.0501 30.0957 9.49135C30.0957 7.93258 28.8321 6.66895 27.2733 6.66895C25.7146 6.66895 24.4509 7.93258 24.4509 9.49135C24.4509 11.0501 25.7146 12.3137 27.2733 12.3137Z"
  />
  <path
    d="M27.2733 25.3311C28.8321 25.3311 30.0957 24.0674 30.0957 22.5087C30.0957 20.9499 28.8321 19.6863 27.2733 19.6863C25.7146 19.6863 24.4509 20.9499 24.4509 22.5087C24.4509 24.0674 25.7146 25.3311 27.2733 25.3311Z"
  />
  <path
    d="M15.9999 31.8397C17.5587 31.8397 18.8223 30.5761 18.8223 29.0173C18.8223 27.4585 17.5587 26.1949 15.9999 26.1949C14.4411 26.1949 13.1775 27.4585 13.1775 29.0173C13.1775 30.5761 14.4411 31.8397 15.9999 31.8397Z"
  />
  <path
    d="M4.72499 25.3311C6.28376 25.3311 7.54739 24.0674 7.54739 22.5087C7.54739 20.9499 6.28376 19.6863 4.72499 19.6863C3.16622 19.6863 1.90259 20.9499 1.90259 22.5087C1.90259 24.0674 3.16622 25.3311 4.72499 25.3311Z"
  />
  <path
    d="M4.72499 12.3137C6.28376 12.3137 7.54739 11.0501 7.54739 9.49135C7.54739 7.93258 6.28376 6.66895 4.72499 6.66895C3.16622 6.66895 1.90259 7.93258 1.90259 9.49135C1.90259 11.0501 3.16622 12.3137 4.72499 12.3137Z"
  />
  <path
    d="M44.4401 16.52C42.7735 16.52 41.4801 16.04 40.5601 15.08C39.6401 14.12 39.1534 12.8333 39.1002 11.22C39.0868 10.82 39.0801 10.1867 39.0801 9.31999C39.0801 8.45334 39.0868 7.81999 39.1002 7.41999C39.1534 5.80665 39.6401 4.51999 40.5601 3.56C41.4801 2.6 42.7735 2.12 44.4401 2.12C45.5735 2.12 46.5268 2.33333 47.3002 2.76C48.0734 3.18666 48.6468 3.69334 49.0202 4.27999C49.4068 4.85334 49.6135 5.36665 49.6401 5.81999V5.86C49.6401 5.96665 49.6001 6.05334 49.5201 6.12C49.4401 6.18665 49.3402 6.22 49.2199 6.22H48.7802C48.6602 6.22 48.5735 6.19334 48.5201 6.14C48.4666 6.08665 48.4135 5.98 48.3601 5.81999C48.1335 5.11334 47.6935 4.51999 47.0401 4.04C46.4001 3.56 45.5335 3.32 44.4401 3.32C43.2001 3.32 42.2202 3.66 41.5002 4.34C40.7934 5.01999 40.4135 6.07999 40.3601 7.52C40.3466 7.91999 40.3402 8.51999 40.3402 9.31999C40.3402 10.12 40.3466 10.72 40.3601 11.12C40.4135 12.56 40.7934 13.62 41.5002 14.3C42.2202 14.98 43.2001 15.32 44.4401 15.32C45.6801 15.32 46.6801 14.9667 47.4401 14.26C48.2001 13.5533 48.5799 12.5067 48.5799 11.12V10.1H45.1002C44.9668 10.1 44.8602 10.06 44.7802 9.97999C44.7002 9.88665 44.6602 9.77334 44.6602 9.64V9.35999C44.6602 9.22665 44.7002 9.12 44.7802 9.04C44.8602 8.94665 44.9668 8.89999 45.1002 8.89999H49.3799C49.5268 8.89999 49.6401 8.93999 49.7201 9.01999C49.8001 9.1 49.8401 9.21334 49.8401 9.35999V11.12C49.8401 12.1867 49.6266 13.1267 49.2001 13.94C48.7735 14.7533 48.1534 15.3867 47.3402 15.84C46.5268 16.2933 45.5601 16.52 44.4401 16.52Z"
  />
  <path
    d="M53.1011 16.32C52.968 16.32 52.8611 16.28 52.7811 16.2C52.7011 16.12 52.6611 16.0133 52.6611 15.88V6.37998C52.6611 6.24664 52.7011 6.13998 52.7811 6.05998C52.8611 5.96664 52.968 5.91998 53.1011 5.91998H53.4211C53.5546 5.91998 53.6611 5.96664 53.7411 6.05998C53.8346 6.13998 53.8813 6.24664 53.8813 6.37998V7.29998C54.3613 6.37998 55.2679 5.91998 56.6013 5.91998H57.3411C57.4746 5.91998 57.5811 5.95998 57.6611 6.03998C57.7411 6.11998 57.7811 6.22664 57.7811 6.35998V6.63998C57.7811 6.77333 57.7411 6.87998 57.6611 6.95998C57.5811 7.03998 57.4746 7.07998 57.3411 7.07998H56.4813C55.6813 7.07998 55.048 7.31333 54.5811 7.77998C54.1146 8.24664 53.8813 8.87998 53.8813 9.67998V15.88C53.8813 16.0133 53.8346 16.12 53.7411 16.2C53.6611 16.28 53.5546 16.32 53.4211 16.32H53.1011Z"
  />
  <path
    d="M62.2581 16.52C61.6181 16.52 61.0245 16.3866 60.478 16.12C59.9314 15.8533 59.4914 15.4933 59.158 15.04C58.838 14.5866 58.678 14.0866 58.678 13.54C58.678 12.66 59.0313 11.94 59.7381 11.38C60.4581 10.82 61.4245 10.46 62.638 10.3L65.798 9.85997V9.15997C65.798 8.42663 65.5714 7.86663 65.118 7.47997C64.678 7.07997 63.998 6.87997 63.078 6.87997C62.398 6.87997 61.838 7.01331 61.398 7.27997C60.9714 7.54663 60.6981 7.86663 60.5781 8.23997C60.5247 8.39997 60.4581 8.51331 60.3781 8.57997C60.3113 8.63331 60.2181 8.65997 60.0981 8.65997H59.8181C59.6981 8.65997 59.5913 8.61997 59.4981 8.53997C59.4181 8.44663 59.3781 8.33997 59.3781 8.21997C59.3781 7.92663 59.5113 7.58663 59.7781 7.19997C60.0447 6.79997 60.4581 6.45331 61.0181 6.15997C61.5781 5.86663 62.2645 5.71997 63.078 5.71997C64.5045 5.71997 65.518 6.05997 66.118 6.73997C66.718 7.41997 67.0181 8.24663 67.0181 9.21997V15.88C67.0181 16.0133 66.9781 16.12 66.8981 16.2C66.8181 16.28 66.7113 16.32 66.5781 16.32H66.238C66.1045 16.32 65.998 16.28 65.918 16.2C65.838 16.12 65.798 16.0133 65.798 15.88V14.94C65.5045 15.38 65.0713 15.7533 64.4981 16.06C63.9381 16.3666 63.1913 16.52 62.2581 16.52ZM62.4581 15.36C63.4313 15.36 64.2313 15.04 64.8581 14.4C65.4847 13.76 65.798 12.84 65.798 11.64V10.96L63.2181 11.32C62.1247 11.4666 61.2981 11.72 60.7381 12.08C60.1781 12.44 59.8981 12.8933 59.8981 13.44C59.8981 14.0533 60.1513 14.5266 60.6581 14.86C61.1781 15.1933 61.7781 15.36 62.4581 15.36Z"
  />
  <path
    d="M70.6407 20.12C70.5076 20.12 70.4007 20.08 70.3207 20C70.2407 19.92 70.2007 19.8133 70.2007 19.68V6.35997C70.2007 6.22663 70.2407 6.11997 70.3207 6.03997C70.4007 5.95997 70.5076 5.91997 70.6407 5.91997H70.9808C71.1143 5.91997 71.2208 5.95997 71.3008 6.03997C71.3808 6.11997 71.4208 6.22663 71.4208 6.35997V7.29997C72.1943 6.24663 73.3143 5.71997 74.7808 5.71997C76.2208 5.71997 77.2807 6.17997 77.9607 7.09997C78.6541 8.00663 79.0208 9.12663 79.0608 10.46C79.0743 10.5933 79.0807 10.8133 79.0807 11.12C79.0807 11.4266 79.0743 11.6466 79.0608 11.78C79.0208 13.1133 78.6541 14.24 77.9607 15.16C77.2807 16.0666 76.2208 16.52 74.7808 16.52C73.3274 16.52 72.2074 15.9933 71.4208 14.94V19.68C71.4208 19.8133 71.3808 19.92 71.3008 20C71.2208 20.08 71.1143 20.12 70.9808 20.12H70.6407ZM74.6608 15.36C75.7408 15.36 76.5274 15.02 77.0208 14.34C77.5274 13.6466 77.8007 12.76 77.8407 11.68C77.8541 11.5466 77.8608 11.36 77.8608 11.12C77.8608 9.87997 77.6208 8.86663 77.1408 8.07997C76.6608 7.27997 75.8343 6.87997 74.6608 6.87997C73.6074 6.87997 72.8141 7.23331 72.2807 7.93997C71.7476 8.63331 71.4608 9.45331 71.4208 10.4L71.4007 11.18L71.4208 11.96C71.4343 12.5333 71.5607 13.08 71.8007 13.6C72.0407 14.1066 72.4007 14.5266 72.8807 14.86C73.3607 15.1933 73.9543 15.36 74.6608 15.36Z"
  />
  <path
    d="M82.2618 16.32C82.1287 16.32 82.0218 16.28 81.9418 16.2C81.8618 16.12 81.8218 16.0133 81.8218 15.88V2.56C81.8218 2.42666 81.8618 2.32 81.9418 2.24C82.0218 2.16 82.1287 2.12 82.2618 2.12H82.6019C82.7354 2.12 82.8419 2.16 82.9219 2.24C83.0019 2.32 83.0419 2.42666 83.0419 2.56V7.29999C83.4419 6.77999 83.8954 6.38665 84.4019 6.12C84.9219 5.85334 85.5885 5.72 86.4019 5.72C87.7085 5.72 88.7152 6.14 89.4218 6.97999C90.1287 7.80665 90.4819 8.87999 90.4819 10.2V15.88C90.4819 16.0133 90.4419 16.12 90.3619 16.2C90.2819 16.28 90.1754 16.32 90.0419 16.32H89.7018C89.5687 16.32 89.4618 16.28 89.3818 16.2C89.3018 16.12 89.2618 16.0133 89.2618 15.88V10.3C89.2618 9.22 88.9952 8.37999 88.4618 7.77999C87.9418 7.18 87.1885 6.87999 86.2019 6.87999C85.2419 6.87999 84.4752 7.18665 83.9018 7.79999C83.3287 8.39999 83.0419 9.23334 83.0419 10.3V15.88C83.0419 16.0133 83.0019 16.12 82.9219 16.2C82.8419 16.28 82.7354 16.32 82.6019 16.32H82.2618Z"
  />
  <path
    d="M102.938 17.62C102.738 17.62 102.525 17.4667 102.298 17.16L101.418 15.94C100.618 16.3267 99.6848 16.52 98.6182 16.52C95.1916 16.52 93.4316 14.68 93.3382 11C93.3248 10.6 93.3184 10.04 93.3184 9.31999C93.3184 8.6 93.3248 8.04 93.3382 7.64C93.3916 5.82665 93.8848 4.45334 94.8182 3.52C95.7516 2.58666 97.0182 2.12 98.6182 2.12C100.218 2.12 101.485 2.58666 102.418 3.52C103.352 4.45334 103.845 5.82665 103.898 7.64C103.925 8.43999 103.938 8.99999 103.938 9.31999C103.938 9.64 103.925 10.2 103.898 11C103.832 12.9067 103.345 14.3067 102.438 15.2L103.718 17C103.758 17.08 103.778 17.1533 103.778 17.22C103.778 17.3267 103.738 17.42 103.658 17.5C103.578 17.58 103.485 17.62 103.378 17.62H102.938ZM98.6182 15.32C99.8182 15.32 100.771 14.96 101.478 14.24C102.198 13.5067 102.585 12.3933 102.638 10.9C102.665 10.1 102.678 9.57334 102.678 9.31999C102.678 9.06665 102.665 8.54 102.638 7.74C102.585 6.24665 102.198 5.14 101.478 4.42C100.758 3.68665 99.8048 3.32 98.6182 3.32C97.4316 3.32 96.4784 3.68665 95.7584 4.42C95.0384 5.14 94.6515 6.24665 94.5984 7.74C94.5849 8.14 94.5782 8.66665 94.5782 9.31999C94.5782 9.97334 94.5849 10.5 94.5984 10.9C94.6515 12.3933 95.0316 13.5067 95.7382 14.24C96.4582 14.96 97.4182 15.32 98.6182 15.32Z"
  />
  <path
    d="M107.56 16.32C107.427 16.32 107.32 16.28 107.24 16.2C107.16 16.12 107.12 16.0134 107.12 15.88V2.76001C107.12 2.62667 107.16 2.52001 107.24 2.44001C107.32 2.36001 107.427 2.32001 107.56 2.32001H107.941C108.074 2.32001 108.181 2.36001 108.261 2.44001C108.341 2.52001 108.381 2.62667 108.381 2.76001V15.12H115.28C115.427 15.12 115.541 15.16 115.621 15.24C115.701 15.32 115.741 15.4334 115.741 15.58V15.88C115.741 16.0134 115.694 16.12 115.6 16.2C115.52 16.28 115.414 16.32 115.28 16.32H107.56Z"
  />
  <path
    d="M40.1633 31.52C40.0618 31.52 39.9809 31.4896 39.9201 31.4288C39.8593 31.368 39.8289 31.287 39.8289 31.1856V21.2296C39.8289 21.1283 39.8593 21.0472 39.9201 20.9864C39.9809 20.9155 40.0618 20.88 40.1633 20.88H46.0305C46.1418 20.88 46.2279 20.9104 46.2887 20.9712C46.3495 21.032 46.3799 21.1181 46.3799 21.2296V21.4576C46.3799 21.5589 46.3447 21.64 46.2737 21.7008C46.2129 21.7616 46.1319 21.792 46.0305 21.792H40.7863V25.8808H45.7265C45.8378 25.8808 45.9239 25.9112 45.9847 25.972C46.0455 26.0328 46.0759 26.1189 46.0759 26.2304V26.4584C46.0759 26.5598 46.0407 26.6408 45.9697 26.7016C45.9089 26.7624 45.8279 26.7928 45.7265 26.7928H40.7863V31.1856C40.7863 31.287 40.7511 31.368 40.6801 31.4288C40.6193 31.4896 40.5383 31.52 40.4369 31.52H40.1633Z"
  />
  <path
    d="M51.1315 31.672C50.0774 31.672 49.2566 31.3528 48.6691 30.7144C48.0915 30.0659 47.7875 29.2299 47.7571 28.2064L47.7417 27.568L47.7571 26.9296C47.7875 25.9061 48.0915 25.0752 48.6691 24.4368C49.2566 23.7883 50.0774 23.464 51.1315 23.464C52.1852 23.464 53.0009 23.7883 53.5785 24.4368C54.1663 25.0752 54.4755 25.9061 54.5059 26.9296C54.5158 27.0309 54.5209 27.2437 54.5209 27.568C54.5209 27.8923 54.5158 28.1051 54.5059 28.2064C54.4755 29.2299 54.1663 30.0659 53.5785 30.7144C53.0009 31.3528 52.1852 31.672 51.1315 31.672ZM51.1315 30.7904C51.8508 30.7904 52.4284 30.5624 52.8643 30.1064C53.31 29.6403 53.5481 28.9816 53.5785 28.1304C53.5887 28.0291 53.5939 27.8416 53.5939 27.568C53.5939 27.2944 53.5887 27.1069 53.5785 27.0056C53.5481 26.1544 53.31 25.5008 52.8643 25.0448C52.4284 24.5787 51.8508 24.3456 51.1315 24.3456C50.4118 24.3456 49.8294 24.5787 49.3833 25.0448C48.9478 25.5008 48.7145 26.1544 48.6841 27.0056L48.6691 27.568L48.6841 28.1304C48.7145 28.9816 48.9478 29.6403 49.3833 30.1064C49.8294 30.5624 50.4118 30.7904 51.1315 30.7904Z"
  />
  <path
    d="M59.5615 31.672C58.5685 31.672 57.8133 31.3579 57.2965 30.7296C56.7797 30.1014 56.5215 29.2806 56.5215 28.2672V23.9504C56.5215 23.8491 56.5519 23.768 56.6127 23.7072C56.6735 23.6464 56.7544 23.616 56.8559 23.616H57.1141C57.2156 23.616 57.2965 23.6464 57.3573 23.7072C57.4181 23.768 57.4485 23.8491 57.4485 23.9504V28.1912C57.4485 29.924 58.2037 30.7904 59.7135 30.7904C60.4431 30.7904 61.0207 30.5624 61.4463 30.1064C61.8821 29.6403 62.0997 29.0019 62.0997 28.1912V23.9504C62.0997 23.8491 62.1301 23.768 62.1909 23.7072C62.2517 23.6464 62.333 23.616 62.4341 23.616H62.6927C62.7941 23.616 62.8751 23.6464 62.9359 23.7072C62.9967 23.768 63.0271 23.8491 63.0271 23.9504V31.1856C63.0271 31.287 62.9967 31.368 62.9359 31.4288C62.8751 31.4896 62.7941 31.52 62.6927 31.52H62.4341C62.333 31.52 62.2517 31.4896 62.1909 31.4288C62.1301 31.368 62.0997 31.287 62.0997 31.1856V30.4712C61.7957 30.8664 61.4463 31.1654 61.0511 31.368C60.6661 31.5707 60.1695 31.672 59.5615 31.672Z"
  />
  <path
    d="M65.8234 31.52C65.722 31.52 65.641 31.4896 65.5802 31.4288C65.5194 31.368 65.489 31.2869 65.489 31.1856V23.9504C65.489 23.8491 65.5194 23.768 65.5802 23.7072C65.641 23.6464 65.722 23.616 65.8234 23.616H66.082C66.1831 23.616 66.2644 23.6464 66.3252 23.7072C66.386 23.768 66.4164 23.8491 66.4164 23.9504V24.6648C66.7204 24.2696 67.0647 23.9707 67.45 23.768C67.8452 23.5653 68.3517 23.464 68.97 23.464C69.9629 23.464 70.7281 23.7832 71.265 24.4216C71.802 25.0499 72.0708 25.8656 72.0708 26.8688V31.1856C72.0708 31.2869 72.0404 31.368 71.9796 31.4288C71.9188 31.4896 71.8375 31.52 71.7364 31.52H71.4778C71.3764 31.52 71.2954 31.4896 71.2346 31.4288C71.1738 31.368 71.1434 31.2869 71.1434 31.1856V26.9448C71.1434 26.124 70.9409 25.4856 70.5354 25.0296C70.1402 24.5736 69.5677 24.3456 68.818 24.3456C68.0884 24.3456 67.5057 24.5787 67.0698 25.0448C66.634 25.5008 66.4164 26.1341 66.4164 26.9448V31.1856C66.4164 31.2869 66.386 31.368 66.3252 31.4288C66.2644 31.4896 66.1831 31.52 66.082 31.52H65.8234Z"
  />
  <path
    d="M77.3123 31.672C76.2179 31.672 75.4071 31.3174 74.8804 30.608C74.3636 29.8886 74.09 29.0171 74.0596 27.9936L74.0442 27.568L74.0596 27.1424C74.09 26.119 74.3636 25.2526 74.8804 24.5432C75.4071 23.8238 76.2179 23.464 77.3123 23.464C78.4167 23.464 79.2679 23.8643 79.8659 24.6648V21.0624C79.8659 20.9611 79.8963 20.88 79.9571 20.8192C80.0179 20.7584 80.0989 20.728 80.2004 20.728H80.4586C80.56 20.728 80.641 20.7584 80.7018 20.8192C80.7626 20.88 80.793 20.9611 80.793 21.0624V31.1856C80.793 31.287 80.7626 31.368 80.7018 31.4288C80.641 31.4896 80.56 31.52 80.4586 31.52H80.2004C80.0989 31.52 80.0179 31.4896 79.9571 31.4288C79.8963 31.368 79.8659 31.287 79.8659 31.1856V30.4712C79.2781 31.2718 78.4269 31.672 77.3123 31.672ZM77.4035 30.7904C78.2039 30.7904 78.8071 30.527 79.2122 30C79.6176 29.463 79.8355 28.8347 79.8659 28.1152C79.8759 28.0139 79.881 27.8163 79.881 27.5224C79.881 27.2286 79.8759 27.031 79.8659 26.9296C79.8557 26.4939 79.7594 26.0835 79.577 25.6984C79.3946 25.3032 79.121 24.979 78.7562 24.7256C78.3914 24.4723 77.9405 24.3456 77.4035 24.3456C76.5827 24.3456 75.9799 24.6091 75.5946 25.136C75.2199 25.6528 75.017 26.3216 74.9866 27.1424L74.9715 27.568C74.9715 28.5104 75.1539 29.2856 75.5187 29.8936C75.8835 30.4915 76.5117 30.7904 77.4035 30.7904Z"
  />
  <path
    d="M85.3996 31.672C84.9132 31.672 84.4623 31.5707 84.047 31.368C83.6316 31.1653 83.2972 30.8917 83.0437 30.5472C82.8005 30.2027 82.679 29.8227 82.679 29.4072C82.679 28.7384 82.9474 28.1912 83.4844 27.7656C84.0316 27.34 84.7663 27.0664 85.6886 26.9448L88.0902 26.6104V26.0784C88.0902 25.5211 87.918 25.0955 87.5733 24.8016C87.2389 24.4976 86.7221 24.3456 86.0229 24.3456C85.5061 24.3456 85.0806 24.4469 84.7462 24.6496C84.422 24.8523 84.214 25.0955 84.1228 25.3792C84.0825 25.5008 84.0316 25.5869 83.9708 25.6376C83.9202 25.6781 83.8492 25.6984 83.758 25.6984H83.5452C83.454 25.6984 83.373 25.668 83.302 25.6072C83.2412 25.5363 83.2108 25.4552 83.2108 25.364C83.2108 25.1411 83.3122 24.8827 83.5148 24.5888C83.7177 24.2848 84.0316 24.0213 84.4572 23.7984C84.8828 23.5755 85.4047 23.464 86.0229 23.464C87.1071 23.464 87.8773 23.7224 88.3333 24.2392C88.7893 24.756 89.0172 25.3843 89.0172 26.124V31.1856C89.0172 31.2869 88.9868 31.368 88.926 31.4288C88.8652 31.4896 88.7842 31.52 88.6828 31.52H88.4246C88.3231 31.52 88.2421 31.4896 88.1813 31.4288C88.1205 31.368 88.0902 31.2869 88.0902 31.1856V30.4712C87.8671 30.8056 87.5378 31.0893 87.102 31.3224C86.6764 31.5555 86.109 31.672 85.3996 31.672ZM85.5516 30.7904C86.2914 30.7904 86.8994 30.5472 87.3756 30.0608C87.8521 29.5744 88.0902 28.8752 88.0902 27.9632V27.4464L86.1292 27.72C85.2985 27.8315 84.67 28.024 84.2444 28.2976C83.8188 28.5712 83.606 28.9157 83.606 29.3312C83.606 29.7973 83.7986 30.1571 84.1836 30.4104C84.5788 30.6637 85.0348 30.7904 85.5516 30.7904Z"
  />
  <path
    d="M94.0066 31.52C93.2569 31.52 92.7247 31.2971 92.4108 30.8512C92.0966 30.3952 91.9394 29.772 91.9394 28.9816V24.4976H90.7538C90.6527 24.4976 90.5714 24.4672 90.5106 24.4064C90.4498 24.3456 90.4194 24.2646 90.4194 24.1632V23.9504C90.4194 23.8491 90.4498 23.768 90.5106 23.7072C90.5714 23.6464 90.6527 23.616 90.7538 23.616H91.9394V21.0624C91.9394 20.9611 91.9698 20.88 92.0306 20.8192C92.0914 20.7584 92.1727 20.728 92.2738 20.728H92.5324C92.6335 20.728 92.7148 20.7584 92.7756 20.8192C92.8364 20.88 92.8668 20.9611 92.8668 21.0624V23.616H94.7516C94.8527 23.616 94.934 23.6464 94.9948 23.7072C95.0556 23.768 95.086 23.8491 95.086 23.9504V24.1632C95.086 24.2646 95.0556 24.3456 94.9948 24.4064C94.934 24.4672 94.8527 24.4976 94.7516 24.4976H92.8668V28.9208C92.8668 29.4883 92.958 29.919 93.1404 30.2128C93.3327 30.4966 93.647 30.6384 94.0828 30.6384H94.9036C95.0047 30.6384 95.086 30.6688 95.1468 30.7296C95.2076 30.7904 95.238 30.8715 95.238 30.9728V31.1856C95.238 31.287 95.2076 31.368 95.1468 31.4288C95.086 31.4896 95.0047 31.52 94.9036 31.52H94.0066Z"
  />
  <path
    d="M96.9767 21.9896C96.8753 21.9896 96.7943 21.9592 96.7335 21.8984C96.6727 21.8376 96.6423 21.7566 96.6423 21.6552V21.0776C96.6423 20.9763 96.6727 20.8952 96.7335 20.8344C96.7943 20.7635 96.8753 20.728 96.9767 20.728H97.5543C97.6555 20.728 97.7367 20.7635 97.7975 20.8344C97.8683 20.8952 97.9038 20.9763 97.9038 21.0776V21.6552C97.9038 21.7566 97.8683 21.8376 97.7975 21.8984C97.7367 21.9592 97.6555 21.9896 97.5543 21.9896H96.9767ZM97.1438 31.52C97.0423 31.52 96.9614 31.4896 96.9006 31.4288C96.8398 31.368 96.8094 31.287 96.8094 31.1856V23.9504C96.8094 23.8491 96.8398 23.768 96.9006 23.7072C96.9614 23.6464 97.0423 23.616 97.1438 23.616H97.4023C97.5035 23.616 97.5847 23.6464 97.6455 23.7072C97.7063 23.768 97.7367 23.8491 97.7367 23.9504V31.1856C97.7367 31.287 97.7063 31.368 97.6455 31.4288C97.5847 31.4896 97.5035 31.52 97.4023 31.52H97.1438Z"
  />
  <path
    d="M103.203 31.672C102.149 31.672 101.329 31.3528 100.741 30.7144C100.163 30.0659 99.8592 29.2299 99.8288 28.2064L99.8137 27.568L99.8288 26.9296C99.8592 25.9061 100.163 25.0752 100.741 24.4368C101.329 23.7883 102.149 23.464 103.203 23.464C104.257 23.464 105.073 23.7883 105.651 24.4368C106.238 25.0752 106.547 25.9061 106.578 26.9296C106.588 27.0309 106.593 27.2437 106.593 27.568C106.593 27.8923 106.588 28.1051 106.578 28.2064C106.547 29.2299 106.238 30.0659 105.651 30.7144C105.073 31.3528 104.257 31.672 103.203 31.672ZM103.203 30.7904C103.923 30.7904 104.5 30.5624 104.936 30.1064C105.382 29.6403 105.62 28.9816 105.651 28.1304C105.66 28.0291 105.666 27.8416 105.666 27.568C105.666 27.2944 105.66 27.1069 105.651 27.0056C105.62 26.1544 105.382 25.5008 104.936 25.0448C104.5 24.5787 103.923 24.3456 103.203 24.3456C102.484 24.3456 101.901 24.5787 101.455 25.0448C101.019 25.5008 100.787 26.1544 100.756 27.0056L100.741 27.568L100.756 28.1304C100.787 28.9816 101.019 29.6403 101.455 30.1064C101.901 30.5624 102.484 30.7904 103.203 30.7904Z"
  />
  <path
    d="M109.004 31.52C108.902 31.52 108.821 31.4896 108.761 31.4288C108.7 31.368 108.669 31.2869 108.669 31.1856V23.9504C108.669 23.8491 108.7 23.768 108.761 23.7072C108.821 23.6464 108.902 23.616 109.004 23.616H109.262C109.364 23.616 109.445 23.6464 109.506 23.7072C109.566 23.768 109.597 23.8491 109.597 23.9504V24.6648C109.901 24.2696 110.245 23.9707 110.63 23.768C111.026 23.5653 111.532 23.464 112.15 23.464C113.143 23.464 113.908 23.7832 114.445 24.4216C114.982 25.0499 115.251 25.8656 115.251 26.8688V31.1856C115.251 31.2869 115.221 31.368 115.16 31.4288C115.099 31.4896 115.018 31.52 114.917 31.52H114.658C114.557 31.52 114.476 31.4896 114.415 31.4288C114.354 31.368 114.324 31.2869 114.324 31.1856V26.9448C114.324 26.124 114.121 25.4856 113.716 25.0296C113.321 24.5736 112.748 24.3456 111.998 24.3456C111.269 24.3456 110.686 24.5787 110.25 25.0448C109.814 25.5008 109.597 26.1341 109.597 26.9448V31.1856C109.597 31.2869 109.566 31.368 109.506 31.4288C109.445 31.4896 109.364 31.52 109.262 31.52H109.004Z"
  />
</svg>
