<svg width="51" height="54" viewBox="0 0 51 54" fill="#59f79d" xmlns="http://www.w3.org/2000/svg">
    <path fill-rule="evenodd" clip-rule="evenodd"
          d="M2.3475 20.2745C2.97079 20.4867 3.63558 20.6073 4.3295 20.6073C4.95277 20.6073 5.55395 20.5117 6.12169 20.3391V36.7481C6.12169 37.328 6.43118 37.8684 6.93045 38.1582L22.6246 47.2835C23.367 46.4108 24.4664 45.8554 25.694 45.8554C27.0301 45.8554 28.2126 46.5134 28.9495 47.5218C28.9625 47.5403 28.9765 47.5576 28.9894 47.5756C29.0413 47.6494 29.0897 47.7248 29.1367 47.8026L29.1905 47.891C29.2321 47.9626 29.2704 48.0355 29.307 48.1093C29.3269 48.1489 29.3458 48.1891 29.3647 48.2294C29.3961 48.2978 29.4256 48.3673 29.4537 48.4378C29.4736 48.4882 29.4915 48.5388 29.5093 48.5899C29.5318 48.6544 29.5539 48.7195 29.5728 48.7852C29.5912 48.8477 29.6058 48.9107 29.6214 48.9737L29.6618 49.1513C29.6774 49.23 29.6877 49.3097 29.6985 49.3902C29.7044 49.4379 29.7136 49.4847 29.7179 49.5324C29.7303 49.6627 29.7379 49.7941 29.7379 49.9277C29.7379 50.1406 29.7168 50.3474 29.685 50.5516L29.6736 50.6275C29.3431 52.5406 27.6862 54 25.694 54C23.9174 54 22.4083 52.8386 21.8665 51.2314L5.04336 41.4502C3.37462 40.4806 2.3475 38.6876 2.3475 36.7481V20.2745ZM46.3846 10.2908C48.6147 10.2908 50.4283 12.1173 50.4283 14.3631C50.4283 15.5848 49.8893 16.6794 49.0406 17.4265V36.7481C49.0406 38.6876 48.0135 40.4806 46.3447 41.4502L31.8907 49.8539C31.8745 48.479 31.413 47.2135 30.6474 46.1876L44.4577 38.1582C44.9569 37.8684 45.2665 37.328 45.2665 36.7481V18.2736C43.5793 17.7838 42.341 16.2179 42.341 14.3631C42.341 13.4601 42.638 12.6277 43.134 11.9517C43.1416 11.9409 43.1497 11.9306 43.1572 11.9197C43.251 11.7948 43.3513 11.6743 43.458 11.5608L43.4726 11.545C43.6942 11.3127 43.9422 11.1079 44.213 10.9337C44.2409 10.9152 44.2705 10.8984 44.2992 10.8804C44.4064 10.8158 44.5159 10.755 44.6291 10.7002C44.662 10.6844 44.695 10.6671 44.7283 10.6519C44.8701 10.5878 45.0147 10.5286 45.1646 10.4814L45.4585 10.3994C45.7561 10.3287 46.066 10.2908 46.3846 10.2908ZM25.6938 0C26.625 0 27.5556 0.242165 28.3897 0.72704L42.9296 9.18112C41.8593 9.90759 41.0311 10.9637 40.5755 12.2006L26.5026 4.01908C26.2574 3.87572 25.9775 3.80081 25.6938 3.80081C25.4103 3.80081 25.131 3.87572 24.8851 4.01908L8.3084 13.6574C8.34829 13.887 8.37309 14.1216 8.37309 14.3632C8.37309 16.1154 7.26672 17.608 5.722 18.1814C5.71014 18.1858 5.69774 18.1906 5.68587 18.1944C5.56349 18.2385 5.43949 18.2765 5.31223 18.3085L5.23622 18.328C5.11976 18.3551 5.0006 18.3764 4.8809 18.3931L4.78332 18.4079C4.63397 18.4246 4.48299 18.4356 4.32934 18.4356C4.16489 18.4356 4.00314 18.4225 3.843 18.403C3.79987 18.3974 3.75782 18.3899 3.71522 18.3834C3.59229 18.3643 3.47151 18.34 3.35235 18.3101C3.31569 18.3008 3.27904 18.2921 3.24237 18.2819C2.92696 18.1922 2.62717 18.0679 2.34734 17.9088L2.10701 17.7607C1.01122 17.0318 0.285568 15.7822 0.285568 14.3632C0.285568 12.1175 2.09988 10.2909 4.32934 10.2909C4.90786 10.2909 5.45673 10.4158 5.95438 10.6368L22.998 0.72704C23.8321 0.242165 24.7632 0 25.6938 0Z"
    />
    <path d="M41.1854 30.4053L37.9828 23.4663L38.8724 23.7331C39.1393 23.8221 39.4062 23.7332 39.5841 23.6442C39.851 23.5552 39.94 23.2884 40.0289 23.1105C40.1179 22.8436 40.0289 22.5766 39.94 22.3987C39.851 22.1318 39.5841 22.0429 39.4062 21.9539L28.8197 18.9293C28.8197 17.5059 27.8412 16.3494 26.5067 15.9935C25.1723 15.6377 23.8379 16.1715 23.1262 17.239L12.5398 14.2143C12.2729 14.1253 12.006 14.2143 11.828 14.3032C11.5612 14.3922 11.4722 14.659 11.3832 14.837C11.2053 15.3707 11.5612 15.9045 12.006 15.9935L13.7852 16.5273L10.1378 24.3559C9.87092 24.5339 9.60402 24.8008 9.60402 25.1566C9.60402 27.3807 10.9384 29.3378 12.9846 30.2274C15.0307 31.117 17.3437 30.5832 18.945 29.0708C20.0125 28.0923 20.5463 26.6689 20.5463 25.2456C20.5463 24.8897 20.3684 24.5339 20.0125 24.3559L16.8099 17.4169L22.5924 19.1072C22.5924 20.4416 23.482 21.5981 24.7275 21.9539V34.1417H23.3041C21.7028 34.1417 20.3684 35.3872 20.3684 36.9885V37.0774C19.2119 37.4333 18.3223 38.5898 18.3223 39.8353V40.7249C18.3223 41.2587 18.7671 41.7035 19.3009 41.7035H32.1113C32.6451 41.7035 33.0899 41.2587 33.0899 40.7249V39.8353C33.0899 38.5898 32.2003 37.4333 31.0438 37.0774V36.9885C31.0438 35.3872 29.7094 34.1417 28.1081 34.1417H26.6847V21.9539C27.3964 21.776 27.9301 21.3313 28.286 20.7085L34.9581 22.6656L31.3107 30.4943C31.0438 30.6722 30.7769 30.939 30.7769 31.2949C30.7769 33.5189 32.1113 35.4762 34.1575 36.3658C36.2036 37.2554 38.5166 36.7216 40.1179 35.2092C41.1854 34.2307 41.7192 32.8073 41.7192 31.3839C41.7192 30.8502 41.5413 30.5832 41.1854 30.4053ZM39.6731 32.1845C39.2283 33.6969 37.8049 34.7644 36.2036 34.7644C34.6023 34.7644 33.1789 33.6969 32.823 32.1845H39.6731ZM33.4458 30.2274L36.2036 24.267L38.9614 30.2274H33.4458ZM20.2794 39.7463C20.2794 39.2125 20.7242 38.8566 21.258 38.8566H30.1542C30.6879 38.8566 31.1328 39.3015 31.1328 39.7463H20.2794ZM24.5496 19.2851C24.3717 18.8402 24.5496 18.2175 24.9054 17.9506C25.0834 17.7727 25.3502 17.6838 25.6171 17.6838C25.884 17.6838 26.0619 17.7727 26.2399 17.8617C26.6847 18.1286 26.8626 18.6624 26.7736 19.1072C26.7736 19.1961 26.7736 19.1961 26.7736 19.2851C26.5957 19.8188 26.1509 20.0857 25.6171 20.0857C25.1723 20.1747 24.7275 19.8188 24.5496 19.2851ZM22.3255 36.8995C22.3255 36.3658 22.7704 35.921 23.3041 35.921H28.1081C28.6418 35.921 29.0866 36.3658 29.0866 36.8995H22.3255ZM18.5002 26.0462C18.0554 27.5586 16.632 28.626 15.0307 28.626C13.4294 28.626 12.006 27.5586 11.6501 26.0462H18.5002ZM12.2729 24.178L15.0307 18.2176L17.7885 24.178H12.2729Z"
    />
</svg>
