<svg width="51" height="54" viewBox="0 0 51 54" fill="#699efc" xmlns="http://www.w3.org/2000/svg">
  <path
    fill-rule="evenodd"
    clip-rule="evenodd"
    d="M2.49028 20.2745C3.11357 20.4867 3.77836 20.6073 4.47228 20.6073C5.09555 20.6073 5.69673 20.5117 6.26447 20.3391V36.7481C6.26447 37.328 6.57396 37.8684 7.07323 38.1582L22.7674 47.2835C23.5097 46.4108 24.6092 45.8554 25.8368 45.8554C27.1729 45.8554 28.3553 46.5134 29.0923 47.5218C29.1052 47.5403 29.1193 47.5576 29.1322 47.5756C29.1841 47.6494 29.2325 47.7248 29.2795 47.8026L29.3333 47.891C29.3749 47.9626 29.4132 48.0355 29.4497 48.1093C29.4697 48.1489 29.4886 48.1891 29.5075 48.2294C29.5388 48.2978 29.5684 48.3673 29.5964 48.4378C29.6164 48.4882 29.6342 48.5388 29.6521 48.5899C29.6746 48.6544 29.6967 48.7195 29.7156 48.7852C29.734 48.8477 29.7485 48.9107 29.7642 48.9737L29.8045 49.1513C29.8202 49.23 29.8304 49.3097 29.8412 49.3902C29.8472 49.4379 29.8564 49.4847 29.8607 49.5324C29.8731 49.6627 29.8807 49.7941 29.8807 49.9277C29.8807 50.1406 29.8596 50.3474 29.8277 50.5516L29.8164 50.6275C29.4859 52.5406 27.829 54 25.8368 54C24.0602 54 22.5511 52.8386 22.0093 51.2314L5.18614 41.4502C3.5174 40.4806 2.49028 38.6876 2.49028 36.7481V20.2745ZM46.5274 10.2908C48.7574 10.2908 50.5711 12.1173 50.5711 14.3631C50.5711 15.5848 50.032 16.6794 49.1833 17.4265V36.7481C49.1833 38.6876 48.1562 40.4806 46.4875 41.4502L32.0335 49.8539C32.0173 48.479 31.5557 47.2135 30.7902 46.1876L44.6005 38.1582C45.0997 37.8684 45.4093 37.328 45.4093 36.7481V18.2736C43.7221 17.7838 42.4837 16.2179 42.4837 14.3631C42.4837 13.4601 42.7807 12.6277 43.2768 11.9517C43.2844 11.9409 43.2925 11.9306 43.3 11.9197C43.3938 11.7948 43.4941 11.6743 43.6008 11.5608L43.6154 11.545C43.837 11.3127 44.085 11.1079 44.3557 10.9337C44.3836 10.9152 44.4133 10.8984 44.4419 10.8804C44.5492 10.8158 44.6587 10.755 44.7719 10.7002C44.8048 10.6844 44.8378 10.6671 44.8711 10.6519C45.0129 10.5878 45.1574 10.5286 45.3074 10.4814L45.6013 10.3994C45.8989 10.3287 46.2088 10.2908 46.5274 10.2908ZM25.8366 0C26.7677 0 27.6983 0.242165 28.5325 0.72704L43.0723 9.18112C42.002 9.90759 41.1739 10.9637 40.7183 12.2006L26.6453 4.01908C26.4002 3.87572 26.1203 3.80081 25.8366 3.80081C25.5531 3.80081 25.2737 3.87572 25.0279 4.01908L8.45118 13.6574C8.49107 13.887 8.51587 14.1216 8.51587 14.3632C8.51587 16.1154 7.4095 17.608 5.86478 18.1814C5.85292 18.1858 5.84051 18.1906 5.82865 18.1944C5.70627 18.2385 5.58227 18.2765 5.45501 18.3085L5.37899 18.328C5.26253 18.3551 5.14337 18.3764 5.02367 18.3931L4.9261 18.4079C4.77675 18.4246 4.62576 18.4356 4.47212 18.4356C4.30767 18.4356 4.14592 18.4225 3.98577 18.403C3.94265 18.3974 3.9006 18.3899 3.85799 18.3834C3.73507 18.3643 3.61429 18.34 3.49513 18.3101C3.45847 18.3008 3.42182 18.2921 3.38515 18.2819C3.06974 18.1922 2.76995 18.0679 2.49012 17.9088L2.24978 17.7607C1.15399 17.0318 0.428345 15.7822 0.428345 14.3632C0.428345 12.1175 2.24265 10.2909 4.47212 10.2909C5.05064 10.2909 5.59951 10.4158 6.09716 10.6368L23.1407 0.72704C23.9749 0.242165 24.906 0 25.8366 0Z"
  />
  <path
    d="M40.322 24.6399C41.285 22.5765 40.2708 20.1582 40.2275 20.0563L39.924 19.3476L39.184 19.5659C39.0976 19.5914 37.4604 20.087 36.3078 21.3263C36.1685 20.906 36.0005 20.5062 35.7825 20.1257C36.3878 19.4402 37.2106 18.2358 37.2106 16.7487C37.2106 14.4623 35.2573 12.7531 35.174 12.6816L34.6075 12.1936L34.0408 12.6816C33.9579 12.7531 32.0043 14.4623 32.0043 16.7487C32.0043 18.3383 32.963 19.8401 34.1958 20.8552C34.718 21.6873 34.9315 22.8431 35.1576 23.9057C35.0319 25.1974 35.4022 26.3861 35.5668 26.8369C35.537 28.0935 35.3151 29.3384 34.9057 30.5433C33.8236 31.6194 33.4256 33.1276 33.2983 33.7794C32.4624 35.0096 31.236 36.0231 30.2884 36.6921C28.4337 37.0714 27.0839 38.5549 27.0194 38.627L26.9507 38.7035C26.5946 38.8952 26.2082 39.0996 25.929 39.2498C25.6379 39.093 25.2793 38.9033 24.9081 38.7033C24.0663 37.7768 22.8266 36.9492 21.571 36.6923C20.6232 36.0229 19.3965 35.0094 18.5609 33.7794C18.4334 33.1276 18.0356 31.6194 16.9533 30.543C16.544 29.3384 16.322 28.0935 16.2921 26.8367C16.4568 26.3861 16.8272 25.1968 16.7017 23.9052C16.9479 22.7417 17.1365 21.669 17.6429 20.8771C18.8705 19.8257 19.8547 18.3104 19.8547 16.6909C19.8547 14.3943 17.8889 12.7401 17.8053 12.6708L17.2515 12.2123L16.6978 12.6708C16.6141 12.7401 14.6482 14.3943 14.6482 16.6909C14.6482 18.1797 15.4753 19.4106 16.0776 20.1101C15.8517 20.4937 15.6817 20.8954 15.5428 21.3172C14.3906 20.0845 12.7611 19.5911 12.675 19.5659L11.9349 19.3476L11.6315 20.0563C11.5879 20.1582 10.5741 22.5765 11.537 24.6399C12.2251 26.1146 13.7282 26.9324 14.5724 27.2917C14.6102 27.9991 14.7018 28.7021 14.8455 29.3971C13.3632 29.0399 11.9551 29.3591 11.8757 29.3777L11.1228 29.5544L11.212 30.322C11.2249 30.4321 11.5474 33.035 13.4154 34.3417C14.5376 35.1271 16.0356 35.3042 17.3985 35.1366C17.9047 35.8071 18.4917 36.409 19.0769 36.9289C17.6438 37.4846 16.6598 38.5658 16.6049 38.627L16.0867 39.2053L16.6049 39.7837C16.6788 39.8662 18.4438 41.8065 20.7222 41.8065C22.2565 41.8065 23.5569 40.9271 24.2659 40.3273C26.058 41.2881 25.3851 40.9344 25.9284 41.2319C27.092 40.5957 25.2701 41.5715 27.5929 40.3273C28.3019 40.9271 29.6022 41.8065 31.1366 41.8065C33.415 41.8065 35.1799 39.8662 35.2539 39.7837L35.7721 39.2053L35.2539 38.627C35.1989 38.5658 34.2149 37.4849 32.7819 36.9289C33.367 36.409 33.954 35.8071 34.4603 35.1366C35.8234 35.3042 37.3214 35.1269 38.4433 34.3417C40.3116 33.0348 40.6324 30.4316 40.6453 30.3214L40.7339 29.5544L39.9815 29.3777C39.9021 29.3591 38.495 29.0402 37.0132 29.3971C37.157 28.7021 37.2488 27.9991 37.2863 27.2917C38.1306 26.9324 39.6337 26.1146 40.322 24.6399ZM17.2508 14.5905C17.6502 15.0839 18.1191 15.8441 18.1191 16.6909C18.1191 17.5399 17.6524 18.3071 17.2519 18.809C16.8517 18.3067 16.3838 17.5379 16.3838 16.6909C16.3838 15.8419 16.8517 15.0832 17.2508 14.5905ZM13.1098 23.907C12.7483 23.1321 12.8367 22.2117 12.9798 21.5631C13.5868 21.8705 14.378 22.3972 14.7407 23.1741C15.1022 23.9488 15.0138 24.869 14.8706 25.5179C14.2636 25.2107 13.4725 24.6837 13.1098 23.907ZM14.4108 32.9214C13.7135 32.4334 13.3325 31.5972 13.1335 30.9655C13.7949 30.9384 14.7088 31.013 15.4063 31.5007C16.1038 31.9887 16.4873 32.824 16.6888 33.4566C16.0249 33.4839 15.1083 33.4094 14.4108 32.9214ZM20.7222 40.0724C19.8707 40.0724 19.0769 39.6077 18.5489 39.2053C19.0771 38.8027 19.8709 38.3383 20.7222 38.3383C21.5737 38.3383 22.3673 38.8025 22.8956 39.2053C22.3673 39.608 21.5737 40.0724 20.7222 40.0724ZM38.8788 21.5617C39.0221 22.2108 39.111 23.1317 38.749 23.907C38.3849 24.687 37.5951 25.2129 36.9888 25.5193C36.8451 24.8701 36.7566 23.9495 37.1183 23.1741C37.4826 22.3938 38.2726 21.868 38.8788 21.5617ZM34.6075 14.6121C35.0088 15.1227 35.4752 15.8988 35.4752 16.7487C35.4752 17.5971 35.0063 18.3472 34.6079 18.8314C34.2097 18.3467 33.7399 17.5955 33.7399 16.7487C33.7399 15.8986 34.2064 15.1223 34.6075 14.6121ZM31.1366 40.0724C30.2857 40.0724 29.4925 39.6087 28.9644 39.206C29.4934 38.8034 30.2884 38.3383 31.1366 38.3383C31.9883 38.3383 32.7821 38.8027 33.3098 39.2053C32.7817 39.608 31.988 40.0724 31.1366 40.0724ZM38.7232 30.9655C38.5238 31.5981 38.1428 32.4352 37.4479 32.9214C36.7505 33.4094 35.834 33.4839 35.1702 33.4566C35.3716 32.824 35.7551 31.989 36.4527 31.501C37.1497 31.0132 38.0628 30.9386 38.7232 30.9655Z"
  />
  <path
    fill-rule="evenodd"
    clip-rule="evenodd"
    d="M25.9293 35.8548C25.9293 35.8548 32.3164 32.6612 32.3164 27.8709V22.2822L25.9293 19.8871L19.5422 22.2822V27.8709C19.5422 32.6612 25.9293 35.8548 25.9293 35.8548ZM22.1551 24.093V27.8709C22.1551 29.0996 23.0157 30.4322 24.4563 31.6928C24.9661 32.1388 25.4831 32.5174 25.9293 32.8152C26.3755 32.5174 26.8925 32.1388 27.4022 31.6928C28.8429 30.4322 29.7035 29.0996 29.7035 27.8709V24.093L25.9293 22.6777L22.1551 24.093ZM27.1042 33.5209C27.1042 33.5209 27.1042 33.5209 27.102 33.5198L27.1042 33.5209Z"
  />
</svg>
