<svg width="51" height="54" viewBox="0 0 51 54" fill="#f25c40" xmlns="http://www.w3.org/2000/svg">
  <path
    fill-rule="evenodd"
    clip-rule="evenodd"
    d="M2.49028 20.2745C3.11357 20.4867 3.77836 20.6073 4.47228 20.6073C5.09555 20.6073 5.69673 20.5117 6.26447 20.3391V36.7481C6.26447 37.328 6.57396 37.8684 7.07323 38.1582L22.7674 47.2835C23.5097 46.4108 24.6092 45.8554 25.8368 45.8554C27.1729 45.8554 28.3553 46.5134 29.0923 47.5218C29.1052 47.5403 29.1193 47.5576 29.1322 47.5756C29.1841 47.6494 29.2325 47.7248 29.2795 47.8026L29.3333 47.891C29.3749 47.9626 29.4132 48.0355 29.4497 48.1093C29.4697 48.1489 29.4886 48.1891 29.5075 48.2294C29.5388 48.2978 29.5684 48.3673 29.5964 48.4378C29.6164 48.4882 29.6342 48.5388 29.6521 48.5899C29.6746 48.6544 29.6967 48.7195 29.7156 48.7852C29.734 48.8477 29.7485 48.9107 29.7642 48.9737L29.8045 49.1513C29.8202 49.23 29.8304 49.3097 29.8412 49.3902C29.8472 49.4379 29.8564 49.4847 29.8607 49.5324C29.8731 49.6627 29.8807 49.7941 29.8807 49.9277C29.8807 50.1406 29.8596 50.3474 29.8277 50.5516L29.8164 50.6275C29.4859 52.5406 27.829 54 25.8368 54C24.0602 54 22.5511 52.8386 22.0093 51.2314L5.18614 41.4502C3.5174 40.4806 2.49028 38.6876 2.49028 36.7481V20.2745ZM46.5274 10.2908C48.7574 10.2908 50.5711 12.1173 50.5711 14.3631C50.5711 15.5848 50.032 16.6794 49.1833 17.4265V36.7481C49.1833 38.6876 48.1562 40.4806 46.4875 41.4502L32.0335 49.8539C32.0173 48.479 31.5557 47.2135 30.7902 46.1876L44.6005 38.1582C45.0997 37.8684 45.4093 37.328 45.4093 36.7481V18.2736C43.7221 17.7838 42.4837 16.2179 42.4837 14.3631C42.4837 13.4601 42.7807 12.6277 43.2768 11.9517C43.2844 11.9409 43.2925 11.9306 43.3 11.9197C43.3938 11.7948 43.4941 11.6743 43.6008 11.5608L43.6154 11.545C43.837 11.3127 44.085 11.1079 44.3557 10.9337C44.3836 10.9152 44.4133 10.8984 44.4419 10.8804C44.5492 10.8158 44.6587 10.755 44.7719 10.7002C44.8048 10.6844 44.8378 10.6671 44.8711 10.6519C45.0129 10.5878 45.1574 10.5286 45.3074 10.4814L45.6013 10.3994C45.8989 10.3287 46.2088 10.2908 46.5274 10.2908ZM25.8366 0C26.7677 0 27.6983 0.242165 28.5325 0.72704L43.0723 9.18112C42.002 9.90759 41.1739 10.9637 40.7183 12.2006L26.6453 4.01908C26.4002 3.87572 26.1203 3.80081 25.8366 3.80081C25.5531 3.80081 25.2737 3.87572 25.0279 4.01908L8.45118 13.6574C8.49107 13.887 8.51587 14.1216 8.51587 14.3632C8.51587 16.1154 7.4095 17.608 5.86478 18.1814C5.85292 18.1858 5.84051 18.1906 5.82865 18.1944C5.70627 18.2385 5.58227 18.2765 5.45501 18.3085L5.37899 18.328C5.26253 18.3551 5.14337 18.3764 5.02367 18.3931L4.9261 18.4079C4.77675 18.4246 4.62576 18.4356 4.47212 18.4356C4.30767 18.4356 4.14592 18.4225 3.98577 18.403C3.94265 18.3974 3.9006 18.3899 3.85799 18.3834C3.73507 18.3643 3.61429 18.34 3.49513 18.3101C3.45847 18.3008 3.42182 18.2921 3.38515 18.2819C3.06974 18.1922 2.76995 18.0679 2.49012 17.9088L2.24978 17.7607C1.15399 17.0318 0.428345 15.7822 0.428345 14.3632C0.428345 12.1175 2.24265 10.2909 4.47212 10.2909C5.05064 10.2909 5.59951 10.4158 6.09716 10.6368L23.1407 0.72704C23.9749 0.242165 24.906 0 25.8366 0Z"
  />
  <path
    d="M28.3051 11.3226C40.9362 20.0737 36.8508 29.7105 36.8508 29.7105C36.8508 29.7105 40.4422 33.8343 38.9971 37.4516C38.9971 37.4516 37.5124 34.9282 35.0338 34.9282C32.6405 34.9282 31.235 37.4516 26.4058 37.4516C15.6742 37.4516 10.598 28.3214 10.598 28.3214C20.2625 34.8132 26.86 30.214 26.86 30.214C22.5003 27.6315 13.2383 15.319 13.2383 15.319C21.3114 22.3174 24.7961 24.154 24.7961 24.154C22.7107 22.4044 16.8693 13.846 16.8693 13.846C21.543 18.666 30.8204 25.3753 30.8204 25.3753C33.4698 17.9574 28.3051 11.3226 28.3051 11.3226Z"
  />
</svg>
