<svg width="51" height="54" viewBox="0 0 51 54" fill="#c026d3" xmlns="http://www.w3.org/2000/svg">
  <path
    fill-rule="evenodd"
    clip-rule="evenodd"
    d="M2.3475 20.2745C2.97079 20.4867 3.63558 20.6073 4.3295 20.6073C4.95277 20.6073 5.55395 20.5117 6.12169 20.3391V36.7481C6.12169 37.328 6.43118 37.8684 6.93045 38.1582L22.6246 47.2835C23.367 46.4108 24.4664 45.8554 25.694 45.8554C27.0301 45.8554 28.2126 46.5134 28.9495 47.5218C28.9625 47.5403 28.9765 47.5576 28.9894 47.5756C29.0413 47.6494 29.0897 47.7248 29.1367 47.8026L29.1905 47.891C29.2321 47.9626 29.2704 48.0355 29.307 48.1093C29.3269 48.1489 29.3458 48.1891 29.3647 48.2294C29.3961 48.2978 29.4256 48.3673 29.4537 48.4378C29.4736 48.4882 29.4915 48.5388 29.5093 48.5899C29.5318 48.6544 29.5539 48.7195 29.5728 48.7852C29.5912 48.8477 29.6058 48.9107 29.6214 48.9737L29.6618 49.1513C29.6774 49.23 29.6877 49.3097 29.6985 49.3902C29.7044 49.4379 29.7136 49.4847 29.7179 49.5324C29.7303 49.6627 29.7379 49.7941 29.7379 49.9277C29.7379 50.1406 29.7168 50.3474 29.685 50.5516L29.6736 50.6275C29.3431 52.5406 27.6862 54 25.694 54C23.9174 54 22.4083 52.8386 21.8665 51.2314L5.04336 41.4502C3.37462 40.4806 2.3475 38.6876 2.3475 36.7481V20.2745ZM46.3846 10.2908C48.6147 10.2908 50.4283 12.1173 50.4283 14.3631C50.4283 15.5848 49.8893 16.6794 49.0406 17.4265V36.7481C49.0406 38.6876 48.0135 40.4806 46.3447 41.4502L31.8907 49.8539C31.8745 48.479 31.413 47.2135 30.6474 46.1876L44.4577 38.1582C44.9569 37.8684 45.2665 37.328 45.2665 36.7481V18.2736C43.5793 17.7838 42.341 16.2179 42.341 14.3631C42.341 13.4601 42.638 12.6277 43.134 11.9517C43.1416 11.9409 43.1497 11.9306 43.1572 11.9197C43.251 11.7948 43.3513 11.6743 43.458 11.5608L43.4726 11.545C43.6942 11.3127 43.9422 11.1079 44.213 10.9337C44.2409 10.9152 44.2705 10.8984 44.2992 10.8804C44.4064 10.8158 44.5159 10.755 44.6291 10.7002C44.662 10.6844 44.695 10.6671 44.7283 10.6519C44.8701 10.5878 45.0147 10.5286 45.1646 10.4814L45.4585 10.3994C45.7561 10.3287 46.066 10.2908 46.3846 10.2908ZM25.6938 0C26.625 0 27.5556 0.242165 28.3897 0.72704L42.9296 9.18112C41.8593 9.90759 41.0311 10.9637 40.5755 12.2006L26.5026 4.01908C26.2574 3.87572 25.9775 3.80081 25.6938 3.80081C25.4103 3.80081 25.131 3.87572 24.8851 4.01908L8.3084 13.6574C8.34829 13.887 8.37309 14.1216 8.37309 14.3632C8.37309 16.1154 7.26672 17.608 5.722 18.1814C5.71014 18.1858 5.69774 18.1906 5.68587 18.1944C5.56349 18.2385 5.43949 18.2765 5.31223 18.3085L5.23622 18.328C5.11976 18.3551 5.0006 18.3764 4.8809 18.3931L4.78332 18.4079C4.63397 18.4246 4.48299 18.4356 4.32934 18.4356C4.16489 18.4356 4.00314 18.4225 3.843 18.403C3.79987 18.3974 3.75782 18.3899 3.71522 18.3834C3.59229 18.3643 3.47151 18.34 3.35235 18.3101C3.31569 18.3008 3.27904 18.2921 3.24237 18.2819C2.92696 18.1922 2.62717 18.0679 2.34734 17.9088L2.10701 17.7607C1.01122 17.0318 0.285568 15.7822 0.285568 14.3632C0.285568 12.1175 2.09988 10.2909 4.32934 10.2909C4.90786 10.2909 5.45673 10.4158 5.95438 10.6368L22.998 0.72704C23.8321 0.242165 24.7632 0 25.6938 0Z"
  />
  <path
    d="M39.2399 32.0221C39.2399 31.3031 38.9599 30.6267 38.4512 30.1185L29.4881 21.1549C30.8876 20.0261 31.8025 18.3185 31.8025 16.3846C31.8025 12.9913 29.042 10.2308 25.6486 10.2308C22.2553 10.2308 19.4948 12.9913 19.4948 16.3846C19.4948 18.3185 20.4096 20.0257 21.8091 21.1549L12.8456 30.1185C12.3369 30.6272 12.0569 31.3031 12.0569 32.0221C12.0569 32.7411 12.3369 33.4174 12.8456 33.9256C13.2594 34.3395 13.7861 34.5918 14.3543 34.6754C14.3061 34.8308 14.2553 34.9857 14.2266 35.1493C14.0481 36.1611 14.2743 37.1816 14.8635 38.0231C15.4527 38.8647 16.3343 39.4262 17.3461 39.6047L24.9214 40.9406C25.1435 40.98 25.3691 41.0001 25.5927 41.0001C25.6086 41.0001 25.6229 40.9944 25.6389 40.9944C25.6614 40.9944 25.6819 41.0001 25.7044 41.0001C25.9281 41.0001 26.1537 40.98 26.3752 40.9411L33.9506 39.6053C34.9624 39.4267 35.8439 38.8652 36.4332 38.0237C37.0224 37.1822 37.2486 36.1617 37.0701 35.1498C37.0413 34.9857 36.9906 34.8314 36.9424 34.676C37.5111 34.5924 38.0378 34.3396 38.4511 33.9262C38.9599 33.4175 39.2399 32.7411 39.2399 32.0221ZM21.0333 16.3846C21.0333 13.8354 23.0994 11.7692 25.6486 11.7692C28.1979 11.7692 30.264 13.8354 30.264 16.3846C30.264 18.9338 28.1979 21 25.6486 21C23.0994 21 21.0333 18.9338 21.0333 16.3846ZM21.9194 37.8215C21.9886 38.2143 22.1261 38.578 22.301 38.9169L17.6138 38.0902C16.3584 37.8687 15.5205 36.6722 15.7419 35.4169C15.9394 34.2974 16.9132 33.5098 18.0117 33.5098C18.1445 33.5098 18.2794 33.5215 18.4153 33.5452L23.0646 34.3652C22.1605 35.2241 21.6871 36.5036 21.9194 37.8215ZM33.683 38.0903L26.1076 39.4261C25.9723 39.4498 25.8374 39.4615 25.7046 39.4615C24.6056 39.4615 23.6318 38.6739 23.4348 37.5544C23.2133 36.299 24.0518 35.1026 25.3066 34.8811L32.882 33.5452C33.0174 33.5211 33.1522 33.5098 33.2856 33.5098C34.3845 33.5098 35.3579 34.2975 35.5553 35.417C35.7763 36.6718 34.9384 37.8692 33.683 38.0903ZM37.3635 32.8379C37.1384 33.063 36.843 33.1758 36.5476 33.1758C36.2523 33.1758 35.9569 33.063 35.7317 32.8379L29.4907 26.6098C29.1902 26.3092 28.703 26.3092 28.403 26.6098C28.103 26.9103 28.1025 27.3974 28.403 27.6974L32.7338 32.0195C32.6943 32.0251 32.6538 32.0231 32.6148 32.0297L25.6486 33.2585L18.6825 32.0303C18.643 32.0231 18.603 32.0257 18.5635 32.02L22.8942 27.698C23.1948 27.3974 23.1948 26.9103 22.8942 26.6103C22.5937 26.3103 22.1066 26.3098 21.8066 26.6103L15.5656 32.8385C15.3405 33.0636 15.0451 33.1764 14.7496 33.1764C14.4543 33.1764 14.1589 33.0636 13.9337 32.8385C13.4829 32.3877 13.4829 31.6575 13.9337 31.2067L23.1455 21.9949C23.9121 22.338 24.7558 22.5385 25.6486 22.5385C26.5414 22.5385 27.385 22.338 28.1517 21.9944L37.3635 31.2061C37.8143 31.6569 37.8143 32.3872 37.3635 32.8379Z"
  />
</svg>
