<svg
  xmlns="http://www.w3.org/2000/svg"
  width="24"
  height="24"
  viewBox="0 0 24 24"
  fill="currentColor"
>
  <path
    d="M7.05 11.55C6.51815 11.55 5.9915 11.4452 5.50013 11.2417C5.00876 11.0381 4.56229 10.7398 4.18622 10.3637C3.81014 9.98766 3.51182 9.54119 3.30829 9.04982C3.10476 8.55845 3 8.03181 3 7.49995C3 6.9681 3.10476 6.44145 3.30829 5.95008C3.51182 5.45871 3.81014 5.01225 4.18622 4.63617C4.56229 4.26009 5.00876 3.96177 5.50013 3.75824C5.9915 3.55471 6.51815 3.44995 7.05 3.44995C8.12413 3.44995 9.15426 3.87665 9.91378 4.63617C10.6733 5.39569 11.1 6.42582 11.1 7.49995C11.1 8.57408 10.6733 9.60421 9.91378 10.3637C9.15426 11.1233 8.12413 11.55 7.05 11.55ZM7.5 20.55C6.42587 20.55 5.39574 20.1233 4.63622 19.3637C3.8767 18.6042 3.45 17.5741 3.45 16.5C3.45 15.4258 3.8767 14.3957 4.63622 13.6362C5.39574 12.8766 6.42587 12.45 7.5 12.45C8.57413 12.45 9.60426 12.8766 10.3638 13.6362C11.1233 14.3957 11.55 15.4258 11.55 16.5C11.55 17.5741 11.1233 18.6042 10.3638 19.3637C9.60426 20.1233 8.57413 20.55 7.5 20.55ZM16.5 11.55C15.9681 11.55 15.4415 11.4452 14.9501 11.2417C14.4588 11.0381 14.0123 10.7398 13.6362 10.3637C13.2601 9.98766 12.9618 9.54119 12.7583 9.04982C12.5548 8.55845 12.45 8.03181 12.45 7.49995C12.45 6.9681 12.5548 6.44145 12.7583 5.95008C12.9618 5.45871 13.2601 5.01225 13.6362 4.63617C14.0123 4.26009 14.4588 3.96177 14.9501 3.75824C15.4415 3.55471 15.9681 3.44995 16.5 3.44995C17.5741 3.44995 18.6043 3.87665 19.3638 4.63617C20.1233 5.39569 20.55 6.42582 20.55 7.49995C20.55 8.57408 20.1233 9.60421 19.3638 10.3637C18.6043 11.1233 17.5741 11.55 16.5 11.55ZM16.5 20.55C15.4259 20.55 14.3957 20.1233 13.6362 19.3637C12.8767 18.6042 12.45 17.5741 12.45 16.5C12.45 15.4258 12.8767 14.3957 13.6362 13.6362C14.3957 12.8766 15.4259 12.45 16.5 12.45C17.5741 12.45 18.6043 12.8766 19.3638 13.6362C20.1233 14.3957 20.55 15.4258 20.55 16.5C20.55 17.5741 20.1233 18.6042 19.3638 19.3637C18.6043 20.1233 17.5741 20.55 16.5 20.55ZM7.05 9.74995C7.64674 9.74995 8.21903 9.5129 8.64099 9.09094C9.06295 8.66898 9.3 8.09669 9.3 7.49995C9.3 6.90321 9.06295 6.33092 8.64099 5.90896C8.21903 5.487 7.64674 5.24995 7.05 5.24995C6.45326 5.24995 5.88097 5.487 5.45901 5.90896C5.03705 6.33092 4.8 6.90321 4.8 7.49995C4.8 8.09669 5.03705 8.66898 5.45901 9.09094C5.88097 9.5129 6.45326 9.74995 7.05 9.74995ZM7.5 18.75C8.09674 18.75 8.66903 18.5129 9.09099 18.0909C9.51295 17.669 9.75 17.0967 9.75 16.5C9.75 15.9032 9.51295 15.3309 9.09099 14.909C8.66903 14.487 8.09674 14.25 7.5 14.25C6.90326 14.25 6.33097 14.487 5.90901 14.909C5.48705 15.3309 5.25 15.9032 5.25 16.5C5.25 17.0967 5.48705 17.669 5.90901 18.0909C6.33097 18.5129 6.90326 18.75 7.5 18.75ZM16.5 9.74995C17.0967 9.74995 17.669 9.5129 18.091 9.09094C18.5129 8.66898 18.75 8.09669 18.75 7.49995C18.75 6.90321 18.5129 6.33092 18.091 5.90896C17.669 5.487 17.0967 5.24995 16.5 5.24995C15.9033 5.24995 15.331 5.487 14.909 5.90896C14.4871 6.33092 14.25 6.90321 14.25 7.49995C14.25 8.09669 14.4871 8.66898 14.909 9.09094C15.331 9.5129 15.9033 9.74995 16.5 9.74995ZM16.5 18.75C17.0967 18.75 17.669 18.5129 18.091 18.0909C18.5129 17.669 18.75 17.0967 18.75 16.5C18.75 15.9032 18.5129 15.3309 18.091 14.909C17.669 14.487 17.0967 14.25 16.5 14.25C15.9033 14.25 15.331 14.487 14.909 14.909C14.4871 15.3309 14.25 15.9032 14.25 16.5C14.25 17.0967 14.4871 17.669 14.909 18.0909C15.331 18.5129 15.9033 18.75 16.5 18.75Z"
  />
</svg>
