<svg width="48" height="55" viewBox="0 0 48 55" fill="none" xmlns="http://www.w3.org/2000/svg">
<g clip-path="url(#clip0)">
<path d="M24.2889 54.9996C23.9978 54.9996 23.7046 54.9996 23.4135 54.9996C23.3894 54.9842 23.3676 54.9578 23.3413 54.9556C23.0524 54.9182 22.8008 54.7906 22.5535 54.6454C21.317 53.926 20.0806 53.2066 18.8464 52.4872C16.4807 51.11 14.1173 49.735 11.7516 48.3578C9.46913 47.029 7.18446 45.7002 4.90198 44.3736C3.67211 43.6586 2.44442 42.9392 1.21236 42.2264C0.652139 41.9008 0.293245 41.4212 0.124739 40.8008C0.0415808 40.4906 -0.00218789 40.1716 -0.00218787 39.846C8.67915e-07 31.6994 3.36107e-06 23.5528 3.71717e-06 15.4062C3.72842e-06 15.1488 0.013134 14.8958 0.0547133 14.6406C0.18164 13.8442 0.571168 13.2392 1.27583 12.841C1.77697 12.5572 2.27154 12.2624 2.77049 11.972C5.27182 10.5134 7.77533 9.05263 10.2766 7.59403C12.3578 6.38183 14.4368 5.16963 16.5179 3.95743C18.5356 2.78263 20.5511 1.60563 22.5688 0.42863C22.7658 0.31423 22.9715 0.22183 23.1925 0.16683C23.3128 0.13603 23.4354 0.11843 23.5558 0.09643C23.6214 0.08543 23.6849 0.07223 23.7177 0.00182999C23.8052 0.00183 23.8928 0.00183 23.9803 0.00183C24.0197 0.06123 24.0788 0.08543 24.1466 0.09423C24.2123 0.10303 24.2757 0.10963 24.3414 0.12283C24.6456 0.18003 24.9257 0.29663 25.1927 0.45283C25.6522 0.72123 26.114 0.98743 26.5735 1.25363C29.6854 3.05543 32.7973 4.85943 35.9092 6.66123C39.0714 8.48723 42.227 10.3176 45.3827 12.1458C45.8182 12.3988 46.2559 12.6452 46.687 12.9048C47.2844 13.2656 47.7068 13.7694 47.9168 14.4448C47.9978 14.7022 48 14.9662 48 15.2302C48 23.4406 48 31.6532 48 39.8636C48 39.9516 47.9978 40.0396 47.9956 40.1276C47.9934 40.5192 47.8687 40.8756 47.6739 41.2078C47.4201 41.6412 47.0677 41.9734 46.6366 42.2242C46.188 42.4838 45.7394 42.7412 45.2908 43.0008C42.2205 44.7762 39.1524 46.5494 36.0821 48.3248C33.4801 49.8296 30.8781 51.3344 28.2761 52.837C27.2279 53.4442 26.1796 54.0492 25.1314 54.6564C24.8907 54.795 24.6434 54.9182 24.3633 54.9534C24.337 54.9578 24.3129 54.9842 24.2889 54.9996ZM23.8359 10.7048C20.9275 10.7048 18.0191 10.7048 15.1108 10.7048C14.9576 10.7048 14.8044 10.7114 14.6512 10.7136C14.5002 10.7158 14.3667 10.7708 14.242 10.8522C14.1107 10.9358 14.0078 11.048 13.9269 11.1822C13.8678 11.2834 13.8087 11.3846 13.7518 11.4858C12.3578 13.9168 10.966 16.35 9.57199 18.781C8.01167 21.5046 6.44917 24.2282 4.88885 26.9496C4.84946 27.02 4.80788 27.0882 4.77286 27.1608C4.65031 27.4226 4.65031 27.6844 4.77286 27.9462C4.79694 27.999 4.82757 28.0496 4.85602 28.1002C5.56287 29.3322 6.26753 30.5642 6.97438 31.794C9.25686 35.7738 11.5393 39.7536 13.8218 43.7334C13.859 43.7972 13.894 43.861 13.9312 43.9226C14.1194 44.224 14.3908 44.3846 14.7475 44.3934C14.7978 44.3956 14.8504 44.3934 14.9007 44.3934C20.8487 44.3934 26.7968 44.3934 32.7448 44.3934C32.8104 44.3934 32.8761 44.3956 32.9417 44.3912C33.2437 44.3758 33.4866 44.2438 33.6683 43.9996C33.712 43.9402 33.7492 43.8764 33.7843 43.8148C34.1235 43.2252 34.4605 42.6334 34.7997 42.0438C37.4586 37.404 40.1174 32.7642 42.7785 28.1244C42.8113 28.0672 42.8442 28.01 42.8748 27.9528C43.0105 27.6778 43.0105 27.4028 42.877 27.1278C42.842 27.0552 42.8004 26.987 42.7588 26.9166C41.9316 25.4756 41.1066 24.0346 40.2794 22.5958C38.1194 18.8338 35.9617 15.0696 33.8018 11.3076C33.7624 11.2372 33.7252 11.1668 33.677 11.1008C33.4976 10.8588 33.2634 10.7136 32.9549 10.7114C32.8017 10.7114 32.6485 10.7048 32.4953 10.7048C29.6088 10.7048 26.7224 10.7048 23.8359 10.7048Z" fill="#4B32C3"/>
<path d="M36.2615 31.4225C36.3359 31.4929 36.4168 31.5083 36.4912 31.5325C37.1915 31.7701 37.7277 32.2079 38.0975 32.8503C38.3032 33.2111 38.4301 33.5983 38.452 34.0163C38.4717 34.3617 38.4652 34.7049 38.3645 35.0393C38.0494 36.0799 37.3732 36.7575 36.3293 37.0589C36.0032 37.1535 35.6684 37.1843 35.3336 37.1469C34.8106 37.0875 34.3247 36.9181 33.9024 36.5925C33.7973 36.5133 33.701 36.4231 33.6026 36.3373C33.5479 36.2911 33.4953 36.2405 33.4341 36.1855C33.3487 36.2295 33.2699 36.2669 33.1955 36.3087C32.0401 36.9797 30.8868 37.6507 29.7313 38.3217C28.8297 38.8453 27.9259 39.3667 27.0221 39.8903C26.6742 40.0905 26.7398 40.0465 26.8142 40.3633C27.0484 41.3511 26.6982 42.4731 25.8973 43.1661C25.4662 43.5379 24.9716 43.7579 24.407 43.8459C23.2187 44.0285 22.0282 43.3839 21.4877 42.3411C21.317 42.0133 21.2163 41.6657 21.1769 41.2961C21.1419 40.9793 21.1704 40.6691 21.2273 40.3589C21.2382 40.3017 21.2448 40.2445 21.2513 40.1917C21.2229 40.1059 21.1507 40.0795 21.0894 40.0421C20.597 39.7561 20.1046 39.4701 19.6122 39.1841C18.6209 38.6099 17.6296 38.0335 16.6382 37.4593C16.0058 37.0941 15.3755 36.7267 14.7431 36.3615C14.7059 36.3395 14.6665 36.3175 14.6293 36.2977C14.5636 36.2603 14.5046 36.2735 14.4498 36.3219C14.3514 36.4077 14.2551 36.4979 14.15 36.5771C13.7693 36.8631 13.3447 37.0347 12.8742 37.1117C11.3533 37.3603 9.90457 36.3219 9.62884 34.8149C9.3903 33.5081 10.0009 32.3355 11.0535 31.7415C11.2242 31.6447 11.4146 31.5853 11.5962 31.5105C11.6487 31.4885 11.7034 31.4687 11.7669 31.4423C11.7778 31.3785 11.7931 31.3147 11.7997 31.2509C11.8063 31.1849 11.8019 31.1189 11.8019 31.0529C11.8019 28.7077 11.8019 26.3625 11.8019 24.0173C11.8019 23.9227 11.7975 23.8259 11.791 23.7313C11.7866 23.6675 11.7538 23.6213 11.6881 23.6037C11.64 23.5905 11.5896 23.5751 11.5415 23.5575C10.502 23.1879 9.84111 22.4685 9.62884 21.3773C9.33997 19.8923 10.165 18.5745 11.4736 18.0993C11.6794 18.0245 11.8894 17.9673 12.1105 17.9585C12.2264 17.9541 12.3424 17.9189 12.4562 17.9255C13.1368 17.9629 13.7561 18.1631 14.2813 18.6207C14.3536 18.6823 14.4258 18.7439 14.498 18.8055C14.5089 18.8143 14.5242 18.8165 14.5483 18.8253C14.5877 18.8077 14.6337 18.7901 14.6774 18.7659C16.8483 17.5053 19.0192 16.2447 21.1901 14.9863C21.2163 14.9709 21.2404 14.9555 21.2579 14.9445C21.247 14.8697 21.2382 14.8213 21.2316 14.7707C21.2054 14.5749 21.1769 14.3791 21.1507 14.1833C21.1463 14.1481 21.1441 14.1107 21.1463 14.0733C21.1835 13.2285 21.4877 12.5069 22.1201 11.9371C22.5381 11.5609 23.0305 11.3189 23.5842 11.2485C25.0066 11.0637 26.0855 11.7963 26.5997 12.8501C26.8164 13.2923 26.9017 13.7653 26.8799 14.2559C26.8733 14.4011 26.8405 14.5463 26.8186 14.6893C26.8055 14.7685 26.7923 14.8477 26.7814 14.9115C26.8273 14.9973 26.8974 15.0259 26.9586 15.0611C28.3154 15.8487 29.6722 16.6363 31.0312 17.4239C31.7315 17.8309 32.4318 18.2379 33.1321 18.6427C33.2459 18.7087 33.3597 18.7703 33.4647 18.8297C33.561 18.8209 33.6048 18.7571 33.6573 18.7087C33.9987 18.3875 34.3948 18.1631 34.8478 18.0399C35.1169 17.9673 35.3905 17.9145 35.6662 17.9277C35.9704 17.9431 36.2746 17.9893 36.5635 18.0993C37.5154 18.4667 38.1435 19.1399 38.3886 20.1365C38.7453 21.5973 37.9356 23.0691 36.5197 23.5553C36.4387 23.5839 36.3381 23.5795 36.2833 23.6543C36.2243 23.7357 36.2527 23.8391 36.2527 23.9315C36.2505 26.3427 36.2527 28.7539 36.2527 31.1651C36.2527 31.2619 36.2593 31.3477 36.2615 31.4225ZM33.6266 32.1573C33.5916 32.0891 33.5697 32.0341 33.5391 31.9857C33.0992 31.2179 32.6572 30.4501 32.2173 29.6823C31.6549 28.7055 31.0947 27.7287 30.5323 26.7519C29.8955 25.6409 29.2564 24.5321 28.6196 23.4211C28.0616 22.4509 27.5035 21.4807 26.9455 20.5105C26.289 19.3687 25.6325 18.2269 24.9782 17.0851C24.9519 17.0411 24.9256 16.9971 24.8972 16.9553C24.86 16.9025 24.8097 16.8827 24.7462 16.8981C24.6324 16.9245 24.5186 16.9619 24.4048 16.9685C24.07 16.9861 23.7308 17.0103 23.4047 16.9223C23.1881 16.8629 23.1771 16.9179 23.0896 17.0543C23.0786 17.0719 23.0677 17.0917 23.0568 17.1115C22.6059 17.8991 22.153 18.6845 21.7021 19.4721C21.0719 20.5699 20.4416 21.6677 19.8114 22.7655C19.1768 23.8699 18.5443 24.9743 17.9097 26.0765C17.286 27.1611 16.6623 28.2457 16.0386 29.3303C15.5397 30.1993 15.0385 31.0683 14.5396 31.9373C14.4958 32.0121 14.4433 32.0847 14.4367 32.1705C14.4455 32.1881 14.4498 32.2035 14.4586 32.2145C14.487 32.2497 14.5133 32.2827 14.5439 32.3135C14.8262 32.6193 15.0298 32.9713 15.1633 33.3651C15.1742 33.4003 15.1851 33.4355 15.1983 33.4685C15.2486 33.6093 15.2661 33.6225 15.4193 33.6291C15.5003 33.6313 15.5791 33.6313 15.66 33.6313C21.2404 33.6313 26.8186 33.6313 32.399 33.6313C32.4493 33.6313 32.5018 33.6313 32.5521 33.6313C32.8169 33.6335 32.8082 33.6203 32.8848 33.3827C33.0139 32.9801 33.224 32.6215 33.5085 32.3113C33.5457 32.2629 33.5785 32.2145 33.6266 32.1573ZM32.806 34.9711C32.7535 34.9579 32.7053 34.9403 32.655 34.9359C32.5762 34.9293 32.4952 34.9315 32.4143 34.9315C26.8142 34.9315 21.2163 34.9315 15.6163 34.9315C15.5572 34.9315 15.5003 34.9293 15.4412 34.9337C15.3974 34.9359 15.3536 34.9403 15.3121 34.9491C15.2683 34.9579 15.2289 34.9777 15.2158 35.0283C15.2026 35.0789 15.2245 35.1141 15.2639 35.1405C15.3252 35.1801 15.3865 35.2197 15.4499 35.2571C15.671 35.3869 15.892 35.5123 16.113 35.6421C17.2291 36.2889 18.3474 36.9379 19.4634 37.5847C20.1944 38.0093 20.9275 38.4361 21.6584 38.8585C21.7459 38.9091 21.8291 38.9685 21.9451 38.9905C21.9976 38.9465 22.0545 38.9003 22.1092 38.8541C22.7941 38.2623 23.5798 38.0159 24.4792 38.1567C25.0438 38.2447 25.534 38.4867 25.9542 38.8673C26.1927 39.0829 26.138 39.0829 26.4334 38.9223C26.44 38.9179 26.4466 38.9157 26.4531 38.9113C27.1228 38.5241 27.7902 38.1347 28.4599 37.7475C29.8539 36.9379 31.2501 36.1283 32.6441 35.3209C32.6944 35.2923 32.7447 35.2615 32.7929 35.2285C32.8476 35.1933 32.8738 35.1449 32.8498 35.0789C32.8344 35.0415 32.8213 35.0085 32.806 34.9711ZM34.9178 31.4467C34.9703 31.3389 34.9594 31.2201 34.9594 31.1035C34.9594 28.7297 34.9594 26.3537 34.9594 23.9799C34.9594 23.9205 34.9616 23.8611 34.955 23.8039C34.9484 23.7467 34.9309 23.6917 34.9178 23.6367C34.8324 23.6081 34.758 23.5839 34.6814 23.5553C34.3422 23.4343 34.0249 23.2671 33.7558 23.0251C32.9198 22.2661 32.6025 21.3267 32.8148 20.2113C32.8257 20.1475 32.8301 20.0837 32.8388 20.0133C32.7622 19.9649 32.6988 19.9187 32.6287 19.8791C31.9219 19.4677 31.215 19.0585 30.5082 18.6471C29.5234 18.0751 28.5387 17.5053 27.5539 16.9333C27.1381 16.6913 26.7201 16.4493 26.3043 16.2073C26.254 16.1787 26.2015 16.1479 26.1468 16.1347C26.1183 16.1259 26.0702 16.1413 26.0505 16.1611C26.0308 16.1831 26.022 16.2293 26.0286 16.2601C26.0373 16.3019 26.0636 16.3393 26.0855 16.3789C26.1686 16.5263 26.2496 16.6715 26.335 16.8189C27.1775 18.2841 28.0222 19.7493 28.8625 21.2145C29.8714 22.9723 30.8802 24.7301 31.8891 26.4879C32.76 28.0037 33.631 29.5217 34.502 31.0375C34.572 31.1585 34.6421 31.2773 34.7143 31.3961C34.7734 31.4885 34.7755 31.4863 34.9178 31.4467ZM13.1215 31.4379C13.255 31.4907 13.2769 31.4885 13.336 31.3917C13.4191 31.2531 13.4957 31.1123 13.5767 30.9737C14.5899 29.2115 15.6053 27.4493 16.6185 25.6871C17.5617 24.0437 18.5049 22.4003 19.4481 20.7591C20.2819 19.3071 21.1178 17.8551 21.9538 16.4031C21.9757 16.3657 21.9976 16.3261 22.0151 16.2865C22.0326 16.2447 22.0348 16.2007 22.002 16.1633C21.9604 16.1193 21.91 16.1193 21.8619 16.1413C21.7962 16.1721 21.7328 16.2095 21.6715 16.2469C21.2492 16.4911 20.8268 16.7375 20.4044 16.9839C18.7566 17.9387 17.1109 18.8935 15.4631 19.8505C15.3996 19.8879 15.3383 19.9253 15.2771 19.9649C15.2202 20.0001 15.2026 20.0529 15.2136 20.1167C15.218 20.1387 15.2223 20.1607 15.2267 20.1805C15.2814 20.4093 15.3011 20.6425 15.2967 20.8779C15.2902 21.4125 15.1479 21.9053 14.8678 22.3563C14.5089 22.9371 14.0012 23.3375 13.3578 23.5619C13.2769 23.5905 13.1893 23.6037 13.1259 23.6609C13.0909 23.8567 13.0909 31.2575 13.1215 31.4379Z" fill="#E535AB"/>
</g>
<defs>
<clipPath id="clip0">
<rect width="55" height="48" fill="white" transform="translate(48) rotate(90)"/>
</clipPath>
</defs>
</svg>
