<svg width="24" height="24" viewBox="0 0 24 24" fill="none" xmlns="http://www.w3.org/2000/svg">
<path d="M11.8249 12.449C11.3269 11.6445 10.9659 10.9765 10.4639 9.7205C9.61592 7.6 15.6199 5.6835 13.1859 2C14.2409 4.545 9.39692 6.117 8.94792 8.2365C8.53542 10.1855 11.8229 12.449 11.8244 12.449H11.8249Z" fill="#F44336"/>
<path d="M11.939 8.63501C11.843 9.89251 13.052 10.5645 13.0875 11.4825C13.1165 12.2305 12.3645 12.8535 12.3645 12.8535C12.3645 12.8535 13.728 12.586 14.154 11.4455C14.6265 10.1775 13.238 9.31051 13.3805 8.29701C13.513 7.32601 16.396 5.52551 16.396 5.52551C16.396 5.52551 12.156 5.80451 11.939 8.63501Z" fill="#F44336"/>
<path d="M16.0428 12.5275C16.9198 12.33 17.6578 12.8885 17.6578 13.533C17.6578 14.9825 15.6478 16.3535 15.6478 16.3535C15.6478 16.3535 18.7598 15.9825 18.7598 13.6015C18.7598 12.0275 17.2323 11.633 16.0428 12.5275ZM14.5643 13.6975C14.5643 13.6975 15.5348 13.006 15.7928 12.746C13.4118 13.252 7.9743 13.3205 7.9743 12.881C7.9743 12.4765 9.7283 12.0625 9.7283 12.0625C9.7283 12.0625 5.8418 12.006 5.8418 13.1525C5.8418 14.3475 10.9293 14.4335 14.5643 13.6975Z" fill="#1565C0"/>
<path d="M13.9672 14.785C11.7132 15.535 7.56074 15.295 8.79124 14.289C8.19124 14.289 7.30273 14.7695 7.30273 15.234C7.30273 16.162 11.7952 16.879 15.1192 15.5195L13.9672 14.785Z" fill="#1565C0"/>
<path d="M9.34409 16.369C8.52559 16.369 7.99609 16.8965 7.99609 17.2815C7.99609 18.4765 12.8751 18.5955 14.8086 17.383L13.5801 16.5665C12.1351 17.2015 8.50809 17.289 9.34359 16.369H9.34409Z" fill="#1565C0"/>
<path d="M18.141 18.3165C18.141 17.8475 17.614 17.6265 17.4245 17.5215C18.5375 20.209 6.2655 20 6.2655 18.414C6.2655 18.0525 7.17 17.701 8.004 17.867L7.295 17.447C5.631 17.1875 4.5 17.918 4.5 18.508C4.5 21.26 18.1405 21.127 18.1405 18.3165H18.141Z" fill="#1565C0"/>
<path d="M19.4998 19.3025C17.4273 21.3495 12.1698 22.0955 6.88477 20.83C12.1698 23.082 19.4748 21.815 19.4998 19.3025Z" fill="#1565C0"/>
</svg>
